<?xml version="1.0" encoding="utf-8"?>
<!-- Generator: Adobe Illustrator 28.0.0, SVG Export Plug-In . SVG Version: 6.00 Build 0)  -->
<svg version="1.1" id="Layer_2_00000087414694066296553400000009891585096859944636_"
	 xmlns="http://www.w3.org/2000/svg" xmlns:xlink="http://www.w3.org/1999/xlink" x="0px" y="0px" viewBox="0 0 500 149.5"
	 style="enable-background:new 0 0 500 149.5;" xml:space="preserve">
<style type="text/css">
	.st0{fill:#132D32;}
	.st1{fill:#25A69C;}
</style>
<g>
	<g>
		<path class="st0" d="M227.1,100.7l-20.4-55.9h11.5l13.3,38.4c0.2,0.5,0.4,1.2,0.6,1.9c0.2,0.7,0.4,1.4,0.6,2
			c0.2,0.6,0.4,1.2,0.6,1.7h0.4c0.2-0.4,0.3-0.9,0.5-1.6c0.2-0.6,0.4-1.2,0.6-1.9c0.2-0.7,0.4-1.3,0.6-2l13.2-38.5h11l-20.4,55.9
			L227.1,100.7L227.1,100.7z"/>
		<path class="st0" d="M280.8,101.7c-4.7,0-8.6-0.8-11.7-2.4c-3.1-1.6-5.5-4.1-7.1-7.4s-2.4-7.5-2.4-12.6s0.8-9.4,2.4-12.7
			c1.6-3.3,3.9-5.7,7.1-7.3s7.1-2.4,11.7-2.4s8.6,0.8,11.8,2.4s5.5,4.1,7,7.3c1.6,3.3,2.4,7.5,2.4,12.7s-0.8,9.3-2.4,12.6
			c-1.6,3.3-3.9,5.8-7,7.4C289.5,100.9,285.5,101.7,280.8,101.7z M280.8,93.6c2.6,0,4.7-0.5,6.3-1.5c1.6-1,2.8-2.5,3.5-4.6
			c0.7-2,1.1-4.6,1.1-7.6v-1.1c0-3-0.4-5.6-1.1-7.6s-1.9-3.6-3.5-4.6s-3.7-1.5-6.3-1.5s-4.7,0.5-6.3,1.5s-2.8,2.5-3.5,4.6
			c-0.7,2-1.1,4.6-1.1,7.6v1.1c0,3,0.4,5.6,1.1,7.6s1.9,3.6,3.5,4.6C276.1,93.1,278.2,93.6,280.8,93.6z"/>
		<path class="st0" d="M310.5,100.7V41.8h9.9v58.9H310.5z"/>
		<path class="st0" d="M342.3,101.7c-2.7,0-4.8-0.5-6.3-1.6s-2.6-2.4-3.2-4.1c-0.6-1.7-0.9-3.4-0.9-5.1V66.1h-5.1v-8.2h5.4l1.8-12
			h7.9v12h7.4v8.2h-7.4V90c0,1.1,0.3,2,0.9,2.6c0.6,0.6,1.5,0.9,2.7,0.9h3.8v6.8c-0.5,0.2-1.2,0.4-2,0.6s-1.6,0.4-2.5,0.5
			C343.9,101.7,343.1,101.7,342.3,101.7L342.3,101.7z"/>
		<path class="st0" d="M375,101.7c-4.6,0-8.4-0.8-11.4-2.4c-3-1.6-5.3-4.1-6.8-7.4s-2.3-7.5-2.3-12.6s0.8-9.4,2.3-12.7
			c1.5-3.3,3.8-5.7,6.8-7.3s6.8-2.4,11.4-2.4c4.1,0,7.6,0.8,10.4,2.3c2.8,1.6,4.9,3.9,6.3,7.1c1.4,3.2,2.1,7.4,2.1,12.5v2.9h-29.2
			c0.1,2.7,0.5,4.9,1.2,6.7c0.7,1.8,1.8,3.2,3.3,4.1c1.5,0.9,3.5,1.3,5.9,1.3c1.2,0,2.4-0.2,3.5-0.5c1.1-0.3,2-0.8,2.9-1.5
			s1.5-1.5,1.9-2.6c0.5-1,0.7-2.2,0.7-3.6h9.8c0,2.7-0.5,5.1-1.4,7.1c-1,2-2.3,3.7-4,5c-1.7,1.3-3.7,2.3-6,2.9
			S377.6,101.7,375,101.7z M364.8,74.8h18.6c0-1.8-0.2-3.3-0.6-4.6c-0.4-1.2-1-2.3-1.7-3.1s-1.6-1.4-2.6-1.8s-2.2-0.5-3.5-0.5
			c-2.1,0-3.9,0.3-5.3,1.1c-1.4,0.7-2.5,1.8-3.3,3.3C365.6,70.6,365.1,72.5,364.8,74.8L364.8,74.8z"/>
		<path class="st0" d="M402.3,100.7V57.9h8.3l0.8,6.8h0.6c0.5-1.4,1.2-2.6,2-3.8s1.8-2.1,3-2.8c1.2-0.7,2.8-1.1,4.6-1.1
			c0.9,0,1.7,0.1,2.4,0.2c0.7,0.2,1.3,0.3,1.7,0.5V67h-3c-1.7,0-3.2,0.2-4.5,0.7c-1.3,0.5-2.4,1.2-3.3,2.2s-1.6,2.2-2,3.7
			c-0.4,1.5-0.6,3.2-0.6,5.1v22.1L402.3,100.7L402.3,100.7z"/>
		<path class="st0" d="M431.7,100.7V57.9h8.3l0.8,6.8h0.6c0.5-1.4,1.2-2.6,2-3.8s1.8-2.1,3-2.8c1.2-0.7,2.8-1.1,4.6-1.1
			c0.9,0,1.7,0.1,2.4,0.2c0.7,0.2,1.3,0.3,1.7,0.5V67h-3c-1.7,0-3.2,0.2-4.5,0.7c-1.3,0.5-2.4,1.2-3.3,2.2s-1.6,2.2-2,3.7
			c-0.4,1.5-0.6,3.2-0.6,5.1v22.1L431.7,100.7L431.7,100.7z"/>
		<path class="st0" d="M471.4,101.7c-1.2,0-2.6-0.1-4.1-0.4c-1.5-0.3-3-0.9-4.5-1.7s-2.6-2-3.5-3.6c-0.9-1.6-1.4-3.7-1.4-6.3
			c0-2.9,0.6-5.4,2-7.3c1.3-1.9,3.1-3.4,5.5-4.6s5.2-1.9,8.5-2.4s6.9-0.7,10.8-0.7v-3.5c0-1.2-0.2-2.4-0.6-3.3
			c-0.4-1-1.1-1.8-2.1-2.3c-1-0.6-2.5-0.9-4.5-0.9s-3.6,0.2-4.7,0.7c-1.1,0.5-1.9,1.1-2.4,1.8c-0.4,0.7-0.6,1.4-0.6,2.2v1.1h-9.6
			c0-0.3-0.1-0.5-0.1-0.8v-1c0-2.4,0.7-4.6,2.2-6.3s3.5-3.2,6.1-4.1s5.6-1.4,9-1.4c3.9,0,7.1,0.5,9.6,1.6c2.5,1.1,4.4,2.6,5.7,4.6
			s1.9,4.4,1.9,7.3v20.2c0,1,0.3,1.8,0.9,2.2c0.6,0.4,1.2,0.6,2,0.6h2.6v6.8c-0.5,0.2-1.3,0.5-2.4,0.8c-1,0.3-2.3,0.4-3.8,0.4
			c-1.4,0-2.7-0.2-3.8-0.7s-2-1.1-2.8-2s-1.3-1.9-1.6-3.1h-0.5c-0.9,1.1-2,2.2-3.3,3.1c-1.3,0.9-2.8,1.6-4.5,2.1
			C475.6,101.5,473.6,101.7,471.4,101.7L471.4,101.7z M474.4,93.6c1.6,0,3.1-0.2,4.4-0.7c1.3-0.5,2.3-1.2,3.2-2
			c0.8-0.9,1.5-1.9,2-3.2c0.5-1.2,0.7-2.6,0.7-4.1v-1.9c-3,0-5.7,0.2-8.3,0.6s-4.5,1.1-6,2.1c-1.5,1-2.2,2.5-2.2,4.4
			c0,1,0.2,1.8,0.7,2.6c0.5,0.7,1.2,1.3,2.1,1.7C471.8,93.4,473,93.6,474.4,93.6L474.4,93.6z"/>
	</g>
	<g>
		<path class="st0" d="M214.4,148.9l14.7-36.4h4.1l14.7,36.4h-3.1l-4.2-10.5h-19l-4.2,10.5H214.4L214.4,148.9z M222.6,135.8h16.9
			l-5.3-13.2c-0.1-0.3-0.3-0.7-0.5-1.3c-0.2-0.6-0.5-1.2-0.7-2c-0.3-0.7-0.6-1.5-0.9-2.3c-0.3-0.8-0.6-1.5-0.8-2.2h-0.4
			c-0.2,0.7-0.6,1.5-0.9,2.4c-0.4,0.9-0.7,1.9-1.1,2.8c-0.4,0.9-0.7,1.8-1,2.5L222.6,135.8L222.6,135.8z"/>
		<path class="st0" d="M261.5,149.5c-2.3,0-4.3-0.5-6-1.5c-1.6-1-2.9-2.6-3.8-4.8c-0.9-2.2-1.3-5.1-1.3-8.6c0-3.3,0.4-5.9,1.3-8
			c0.9-2.1,2.1-3.6,3.8-4.7c1.7-1,3.6-1.5,5.9-1.5c1.2,0,2.3,0.1,3.4,0.4s2,0.7,2.9,1.4s1.6,1.5,2.3,2.7h0.4v-14.3h2.5v38.4h-1.9
			l-0.4-4.2h-0.4c-1,1.7-2.3,2.9-3.9,3.7C265,149.1,263.3,149.5,261.5,149.5L261.5,149.5z M261.5,147.2c2.1,0,3.8-0.5,5.1-1.4
			c1.3-0.9,2.3-2.3,2.9-4s0.9-3.9,0.9-6.5v-1.1c0-2.6-0.3-4.7-0.8-6.2c-0.5-1.6-1.3-2.7-2.1-3.5c-0.9-0.8-1.8-1.3-2.8-1.6
			c-1-0.3-1.9-0.4-2.8-0.4c-1.9,0-3.5,0.4-4.8,1.2c-1.3,0.8-2.3,2-3,3.7c-0.7,1.7-1,3.9-1,6.7v1.6c0,2.9,0.4,5.2,1.1,6.9
			c0.7,1.7,1.7,2.9,3,3.6S260,147.2,261.5,147.2L261.5,147.2z"/>
		<path class="st0" d="M288.4,148.9L278.1,121h2.7l5.7,15.6c0.3,0.7,0.6,1.6,0.9,2.6c0.3,1,0.7,2,1,3c0.4,1,0.6,1.9,0.9,2.6h0.3
			c0.3-0.7,0.6-1.6,1-2.6c0.4-1,0.7-2,1.1-3c0.4-1,0.7-1.9,1-2.6l5.7-15.6h2.5l-10.4,27.9H288.4L288.4,148.9z"/>
		<path class="st0" d="M306,114.5v-4h2.5v4H306z M306,148.9V121h2.5v27.9H306z"/>
		<path class="st0" d="M324.8,149.5c-1.8,0-3.3-0.2-4.7-0.5c-1.4-0.3-2.5-0.9-3.4-1.5c-0.9-0.7-1.6-1.6-2-2.6s-0.7-2.2-0.7-3.6v-0.5
			c0-0.2,0-0.3,0-0.5h2.5c0,0.2,0,0.4,0,0.5v0.4c0,1.6,0.3,2.8,1,3.6c0.7,0.9,1.7,1.5,3,1.8s2.8,0.5,4.5,0.5c1.5,0,2.8-0.2,4-0.7
			s2-1.1,2.7-1.9c0.7-0.8,1-1.9,1-3.1c0-1.5-0.4-2.6-1.3-3.4c-0.9-0.8-1.9-1.4-3.3-1.8c-1.3-0.4-2.7-0.8-4.1-1.2
			c-1.1-0.3-2.2-0.7-3.3-1c-1.1-0.4-2-0.8-2.9-1.4c-0.9-0.6-1.6-1.2-2.1-2.1s-0.8-1.9-0.8-3.2c0-1.1,0.2-2,0.6-2.9
			c0.4-0.9,1-1.6,1.9-2.3c0.8-0.6,1.9-1.1,3.1-1.5c1.2-0.3,2.7-0.5,4.3-0.5c2,0,3.6,0.2,4.8,0.7s2.3,1,3,1.8
			c0.7,0.8,1.2,1.6,1.5,2.5c0.3,0.9,0.5,1.8,0.5,2.7v0.4c0,0.1,0,0.3,0,0.5h-2.5V128c0-0.7-0.2-1.5-0.5-2.4c-0.3-0.8-1-1.5-2.1-2.1
			c-1-0.6-2.6-0.9-4.8-0.9c-1.2,0-2.2,0.1-3.1,0.3c-0.9,0.2-1.6,0.5-2.2,0.9c-0.6,0.4-1,0.9-1.4,1.5c-0.3,0.6-0.5,1.3-0.5,2.1
			c0,1.2,0.4,2.1,1.1,2.7c0.7,0.6,1.6,1.1,2.8,1.5s2.3,0.7,3.6,1.2c1.2,0.4,2.4,0.8,3.6,1.2c1.2,0.4,2.3,0.9,3.4,1.4
			c1,0.6,1.8,1.3,2.4,2.2c0.6,0.9,0.9,2.1,0.9,3.5c0,1.3-0.3,2.5-0.8,3.5s-1.3,1.9-2.2,2.6c-0.9,0.7-2,1.3-3.4,1.6
			C327.7,149.4,326.3,149.5,324.8,149.5L324.8,149.5z"/>
		<path class="st0" d="M351.8,149.5c-2.5,0-4.7-0.5-6.5-1.6c-1.8-1-3.2-2.6-4.1-4.8c-1-2.2-1.4-4.9-1.4-8.2c0-3.3,0.5-6.1,1.4-8.3
			c1-2.1,2.3-3.7,4.1-4.8c1.8-1,4-1.6,6.5-1.6s4.8,0.5,6.6,1.6c1.8,1,3.2,2.6,4.1,4.8c1,2.1,1.4,4.9,1.4,8.3c0,3.4-0.5,6.1-1.4,8.2
			c-1,2.2-2.3,3.8-4.1,4.8C356.6,149,354.4,149.5,351.8,149.5z M351.8,147.2c2,0,3.6-0.4,5-1.2s2.5-2,3.2-3.7
			c0.8-1.7,1.1-3.9,1.1-6.6v-1.6c0-2.8-0.4-5-1.1-6.7c-0.8-1.7-1.8-2.9-3.2-3.7s-3.1-1.2-5-1.2s-3.6,0.4-5,1.2s-2.5,2-3.2,3.7
			c-0.8,1.7-1.1,3.9-1.1,6.7v1.6c0,2.7,0.4,4.9,1.1,6.6c0.8,1.7,1.8,2.9,3.2,3.7S349.8,147.2,351.8,147.2z"/>
		<path class="st0" d="M369.9,148.9V121h1.9l0.3,4.8h0.3c0.2-0.9,0.6-1.7,1-2.5s1.2-1.5,2-2.1s2-0.9,3.4-0.9c0.5,0,0.9,0,1.3,0.1
			c0.4,0.1,0.7,0.1,0.9,0.2v2.2h-1.5c-1.3,0-2.4,0.3-3.3,0.8s-1.6,1.2-2.2,2.1c-0.5,0.9-1,1.9-1.2,2.9c-0.2,1.1-0.4,2.2-0.4,3.3
			v16.9L369.9,148.9L369.9,148.9z"/>
		<path class="st0" d="M394.1,149.5c-1.8,0-3.3-0.2-4.7-0.5c-1.4-0.3-2.5-0.9-3.4-1.5c-0.9-0.7-1.6-1.6-2-2.6s-0.7-2.2-0.7-3.6v-0.5
			c0-0.2,0-0.3,0-0.5h2.5c0,0.2,0,0.4,0,0.5v0.4c0,1.6,0.3,2.8,1,3.6c0.7,0.9,1.7,1.5,3,1.8s2.8,0.5,4.5,0.5c1.5,0,2.8-0.2,4-0.7
			s2-1.1,2.7-1.9c0.7-0.8,1-1.9,1-3.1c0-1.5-0.4-2.6-1.3-3.4c-0.9-0.8-1.9-1.4-3.3-1.8c-1.3-0.4-2.7-0.8-4.1-1.2
			c-1.1-0.3-2.2-0.7-3.3-1c-1.1-0.4-2-0.8-2.9-1.4c-0.9-0.6-1.6-1.2-2.1-2.1s-0.8-1.9-0.8-3.2c0-1.1,0.2-2,0.6-2.9
			c0.4-0.9,1-1.6,1.9-2.3c0.8-0.6,1.9-1.1,3.1-1.5c1.2-0.3,2.7-0.5,4.3-0.5c2,0,3.6,0.2,4.8,0.7s2.3,1,3,1.8
			c0.7,0.8,1.2,1.6,1.5,2.5c0.3,0.9,0.5,1.8,0.5,2.7v0.4c0,0.1,0,0.3,0,0.5h-2.5V128c0-0.7-0.2-1.5-0.5-2.4c-0.3-0.8-1-1.5-2.1-2.1
			c-1-0.6-2.6-0.9-4.8-0.9c-1.2,0-2.2,0.1-3.1,0.3c-0.9,0.2-1.6,0.5-2.2,0.9c-0.6,0.4-1,0.9-1.4,1.5c-0.3,0.6-0.5,1.3-0.5,2.1
			c0,1.2,0.4,2.1,1.1,2.7c0.7,0.6,1.6,1.1,2.8,1.5s2.3,0.7,3.6,1.2c1.2,0.4,2.4,0.8,3.6,1.2c1.2,0.4,2.3,0.9,3.4,1.4
			c1,0.6,1.8,1.3,2.4,2.2c0.6,0.9,0.9,2.1,0.9,3.5c0,1.3-0.3,2.5-0.8,3.5s-1.3,1.9-2.2,2.6c-0.9,0.7-2,1.3-3.4,1.6
			C397.1,149.4,395.7,149.5,394.1,149.5L394.1,149.5z"/>
	</g>
</g>
<g>
	<path class="st1" d="M75.5,0H2.3C0.5,0-0.6,2,0.4,3.5L37,60.9c0.9,1.4,3,1.4,3.9,0L77.4,3.5C78.4,2,77.3,0,75.5,0z"/>
	<path class="st0" d="M186,3.2L95.6,148.5c-0.8,1.3-2.7,1.3-3.5,0l-26.7-43.3c-0.4-0.7-0.4-1.5,0-2.2L130.3,1c0.4-0.6,1-1,1.8-1
		h52.2C185.9,0,186.9,1.8,186,3.2L186,3.2z"/>
</g>
</svg>
