<?xml version="1.0" encoding="utf-8"?>
<!-- Generator: Adobe Illustrator 28.0.0, SVG Export Plug-In . SVG Version: 6.00 Build 0)  -->
<svg version="1.1" id="Layer_2_00000088847416376602189560000016932993765168859264_"
	 xmlns="http://www.w3.org/2000/svg" xmlns:xlink="http://www.w3.org/1999/xlink" x="0px" y="0px" viewBox="0 0 3704.591 2973.797"
	 style="enable-background:new 0 0 3704.591 2973.797;" xml:space="preserve">
<style type="text/css">
	.st0{fill:#25A69C;}
	.st1{fill:#132D32;}
</style>
<path class="st0" d="M1502.657,0H44.978C9.425,0-11.314,38.516,6.462,71.106L735.302,1211.77c17.777,26.665,59.255,26.665,77.032,0
	L1541.173,71.106C1558.949,38.516,1538.21,0,1502.657,0z"/>
<path class="st1" d="M3698.063,62.218L1902.63,2953.873c-17.776,26.665-53.33,26.665-71.106,0l-530.334-859.201
	c-8.888-11.851-8.888-29.628,0-44.441L2589.99,17.777C2598.878,5.926,2610.729,0,2625.543,0H3662.51
	C3695.1,0,3715.84,35.553,3698.063,62.218z"/>
</svg>
