<?xml version="1.0" encoding="utf-8"?>
<!-- Generator: Adobe Illustrator 28.0.0, SVG Export Plug-In . SVG Version: 6.00 Build 0)  -->
<svg version="1.1" id="Layer_1" xmlns="http://www.w3.org/2000/svg" xmlns:xlink="http://www.w3.org/1999/xlink" x="0px" y="0px"
	 viewBox="0 0 1262.8 1500" style="enable-background:new 0 0 1262.8 1500;" xml:space="preserve">
<path id="Layer" d="M1052.8,1440c-81.3,78.9-171,66.6-256.5,29.4c-90.9-37.9-174-40.4-270,0c-119.6,51.6-183,36.6-255-29.4
	C-135.2,1021.5-75.2,384,386.8,360c112.1,6,190.5,61.9,256.5,66.6c98.1-20,192-77.1,297-69.6c126.2,10.2,220.5,60,283.5,149.6
	c-259.5,155.9-198,497.9,40.3,594c-47.6,125.2-108.8,249-211.5,340.5L1052.8,1440z M634.3,355.5c-12.1-186,138.6-339,312-354
	C970.2,216,751.3,376.5,634.3,355.5z"/>
</svg>
