<?xml version="1.0" encoding="utf-8"?>
<!-- Generator: Adobe Illustrator 28.0.0, SVG Export Plug-In . SVG Version: 6.00 Build 0)  -->
<svg version="1.1" id="Layer_1" xmlns="http://www.w3.org/2000/svg" xmlns:xlink="http://www.w3.org/1999/xlink" x="0px" y="0px"
	 viewBox="0 0 131 42.9" style="enable-background:new 0 0 131 42.9;" xml:space="preserve">
<path d="M83.5,0.4H79v32h4.5V0.4z M125.6,11.8l-6,13.2l-6.3-13.2h-4.9l8.8,18.3l-5.9,12.9h4.6l14.2-31.2
	C130.2,11.8,125.6,11.8,125.6,11.8z M57,22.1c0.1,3.7,3.1,6.6,6.8,6.5c3.7-0.1,6.6-3.1,6.5-6.8c-0.1-3.6-3-6.5-6.6-6.5
	c-3.6-0.1-6.6,2.8-6.6,6.4C57,21.9,57,22,57,22.1L57,22.1z M52.6,22.1C52.5,16,57.3,11,63.4,10.9s11.1,4.7,11.3,10.8
	S70,32.8,63.9,33c-0.1,0-0.2,0-0.2,0C57.6,33,52.7,28.2,52.6,22.1C52.6,22.2,52.6,22.1,52.6,22.1L52.6,22.1z M97.6,14.9
	c2.8,0,5.1,2,5.7,4.7H91.6C92.2,16.7,94.7,14.8,97.6,14.9L97.6,14.9z M103.5,26.1c-1.3,1.8-3.4,2.9-5.6,2.9
	c-3.4,0.2-6.3-2.5-6.4-5.9c0,0,0-0.1,0-0.1h16c0.4-6.3-3.2-11.8-10-11.8c-6.6,0-10.3,5-10.3,11.1c0,5.9,4.2,10.6,10.4,10.6
	c3.6,0.1,7-1.7,9-4.7C106.7,28.3,103.5,26.1,103.5,26.1z M31.8,22.1c0.1,3.7,3.1,6.6,6.8,6.5c3.7-0.1,6.6-3.1,6.5-6.8
	c-0.1-3.6-3-6.5-6.6-6.5c-3.6-0.1-6.6,2.8-6.6,6.4C31.8,21.9,31.8,22,31.8,22.1L31.8,22.1z M27.4,22.1C27.3,16,32.2,11,38.3,10.9
	c6.1-0.1,11.1,4.7,11.3,10.8c0.1,6.1-4.7,11.1-10.8,11.3c-0.1,0-0.2,0-0.2,0C32.4,33,27.5,28.2,27.4,22.1
	C27.4,22.2,27.4,22.1,27.4,22.1L27.4,22.1z M15.1,2.9C6.8,2.9,0,9.6,0,18C0,26.3,6.8,33,15.1,33c3.2,0,6.4-1,9.1-2.9v-5.3
	c-2.6,2.9-6.4,3.6-9.2,3.6C9.1,28.5,4.4,23.8,4.4,18S9.1,7.4,14.9,7.4c2.9,0,6.7,0.6,9.3,3.6V5.8C21.5,3.8,18.3,2.8,15.1,2.9"/>
</svg>
