<?xml version="1.0" encoding="utf-8"?>
<!-- Generator: Adobe Illustrator 28.0.0, SVG Export Plug-In . SVG Version: 6.00 Build 0)  -->
<svg version="1.1" id="Layer_1" xmlns="http://www.w3.org/2000/svg" xmlns:xlink="http://www.w3.org/1999/xlink" x="0px" y="0px"
	 viewBox="0 0 1601 268" style="enable-background:new 0 0 1601 268;" xml:space="preserve">
<style type="text/css">
	.st0{fill-rule:evenodd;clip-rule:evenodd;}
</style>
<path class="st0" d="M297.1,152.5l-62.5,107.2c-3,5.1-8.5,8.3-14.4,8.3H85.7c-5.9,0-11.4-3.2-14.4-8.3l-68-116.8
	c-3.1-5.2-3.1-11.6,0-16.8l68-116.8c3-5.1,8.5-8.3,14.4-8.3h134.5c5.9,0,11.4,3.2,14.4,8.3l62.7,107.5h-62.1l-36.5-62.5h-91.5
	l-47.3,79.3l47.2,81.1h91.7l36.2-62.2L297.1,152.5z"/>
<path d="M152.1,133.6l-29.3-50.9h58.6l29.3,50.9H152.1z"/>
<path d="M210.7,133.6l-29.3,51h-58.6l29.3-51H210.7z"/>
<path d="M152.1,133.6l-29.3,51l-29.3-51l29.3-50.9L152.1,133.6z"/>
<path class="st0" d="M449.1,87.3H504c5.3,0,9.8,1.9,13.5,5.7c3.7,3.7,5.6,8.2,5.6,13.5v55c0,5.3-1.9,9.8-5.6,13.6
	c-3.7,3.7-8.2,5.6-13.5,5.6h-54.9c-5.3,0-9.9-1.8-13.6-5.5c-3.7-3.7-5.5-8.3-5.5-13.7v-55c0-5.3,1.8-9.9,5.5-13.6
	C439.2,89.2,443.8,87.3,449.1,87.3L449.1,87.3z M450,160.5h52.8v-52.9H450V160.5z"/>
<path class="st0" d="M633.6,106.7v24.1c0,5.3-1.9,9.8-5.7,13.5c-3.8,3.8-8.3,5.7-13.6,5.7h-0.9l18.9,22.3c0.8,1,1.3,2.3,1.3,3.6
	c0,2.7-2.2,4.8-4.8,4.8h-13.3c-1.7,0-3.2-0.7-4.2-1.9L587.2,150l-26.7,0.1v25.1c0,3.1-2.4,5.5-5.5,5.5h-9.1c-3,0-5.4-2.4-5.4-5.5
	V92.9c0-3,2.4-5.4,5.4-5.4h68.4c5.3,0,9.8,1.9,13.6,5.6S633.6,101.4,633.6,106.7L633.6,106.7z M560.5,129.7h52.8v-22.1h-52.8V129.7z
	"/>
<path class="st0" d="M736.8,92.8v9.3c0,3-2.4,5.5-5.4,5.5h-60.3v16.3h47.5c3,0,5.4,2.5,5.4,5.5v9.3c0,3-2.4,5.5-5.4,5.5h-47.5v16.3
	h60.3c3,0,5.4,2.5,5.4,5.5v9.2c0,3.1-2.4,5.5-5.4,5.5h-75.1c-3,0-5.5-2.4-5.5-5.5V92.8c0-3,2.5-5.5,5.5-5.5h75.1
	C734.4,87.3,736.8,89.8,736.8,92.8z"/>
<path class="st0" d="M1116.9,92.8v9.3c0,3-2.5,5.5-5.5,5.5h-60.2v16.3h47.4c3,0,5.5,2.5,5.5,5.5v9.3c0,3-2.5,5.5-5.5,5.5h-47.4v16.3
	h60.2c3,0,5.5,2.5,5.5,5.5v9.2c0,3.1-2.5,5.5-5.5,5.5h-75.1c-3,0-5.4-2.4-5.4-5.5V92.8c0-3,2.4-5.5,5.4-5.5h75.1
	C1114.4,87.3,1116.9,89.8,1116.9,92.8z"/>
<path class="st0" d="M874.7,106.5v3.2c0,3.1-2.5,5.5-5.5,5.5h-14.8v-7.6h-52.8v16.3h53.9c5.3,0,9.8,1.9,13.5,5.7
	c3.8,3.7,5.7,8.2,5.7,13.5v18.4c0,5.3-1.9,9.8-5.7,13.6c-3.7,3.7-8.2,5.6-13.5,5.6h-54.4c-5.2,0-10.2-1.9-13.9-5.5
	c-3.8-3.7-5.7-8.3-5.7-13.7v-3.2c0-3,2.5-5.5,5.5-5.5h14.6v7.7h52.8v-16.3h-53.3c-5.2,0-10.2-2-13.9-5.6c-3.8-3.7-5.7-8.3-5.7-13.7
	v-18.4c0-5.3,1.9-9.9,5.7-13.6c3.7-3.7,8.7-5.6,13.9-5.6h54.4c5.3,0,9.8,1.9,13.5,5.7C872.8,96.7,874.7,101.2,874.7,106.5z"/>
<path class="st0" d="M971.6,107.6h-59.8v52.9h59.8c3,0,5.4,2.5,5.4,5.5v9.2c0,3.1-2.4,5.5-5.4,5.5h-60.7c-5.3,0-9.9-1.8-13.6-5.5
	c-3.7-3.7-5.6-8.3-5.6-13.7v-55c0-5.3,1.9-9.9,5.6-13.6c3.7-3.7,8.3-5.6,13.6-5.6h60.7c3,0,5.4,2.5,5.4,5.5v9.3
	C977,105.1,974.6,107.6,971.6,107.6z"/>
<path class="st0" d="M408.1,107.6h-59.8v52.9h59.8c3,0,5.4,2.5,5.4,5.5v9.2c0,3.1-2.4,5.5-5.4,5.5h-60.7c-5.3,0-9.9-1.8-13.6-5.5
	c-3.7-3.7-5.5-8.3-5.5-13.7v-55c0-5.3,1.8-9.9,5.5-13.6c3.7-3.7,8.3-5.6,13.6-5.6h60.7c3,0,5.4,2.5,5.4,5.5v9.3
	C413.5,105.1,411.1,107.6,408.1,107.6z"/>
<path class="st0" d="M1595.5,107.6h-59.7v52.9h59.7c3.1,0,5.5,2.5,5.5,5.5v9.2c0,3.1-2.4,5.5-5.5,5.5h-60.6c-5.4,0-9.9-1.8-13.6-5.5
	c-3.7-3.7-5.6-8.3-5.6-13.7v-55c0-5.3,1.9-9.9,5.6-13.6c3.7-3.7,8.2-5.6,13.6-5.6h60.6c3.1,0,5.5,2.5,5.5,5.5v9.3
	C1601,105.1,1598.6,107.6,1595.5,107.6z"/>
<path class="st0" d="M993.9,175.2V92.8c0-3,2.4-5.5,5.4-5.5h9.3c3,0,5.4,2.5,5.4,5.5v82.4c0,3.1-2.4,5.5-5.4,5.5h-9.3
	C996.3,180.7,993.9,178.3,993.9,175.2z"/>
<path class="st0" d="M1205.8,149.6V92.8c0-3,2.4-5.5,5.4-5.5h9.4c3,0,5.5,2.5,5.5,5.5v82.4c0,3.1-2.5,5.5-5.5,5.5h-12.7
	c-1.6,0-3.1-0.7-4.2-1.9l-50.7-60.6v57c0,3.1-2.5,5.5-5.5,5.5h-9.1c-3,0-5.5-2.4-5.5-5.5V92.8c0-3,2.5-5.5,5.5-5.5h12.7
	c1.6,0,3.1,0.7,4.2,2L1205.8,149.6z"/>
<path class="st0" d="M1244.6,87.3h82.2c3.1,0,5.5,2.5,5.5,5.5v9.3c0,3-2.4,5.5-5.5,5.5h-31v67.6c0,3.1-2.4,5.5-5.4,5.5h-9.3
	c-3,0-5.5-2.4-5.5-5.5v-67.6h-31c-3,0-5.4-2.5-5.4-5.5v-9.3C1239.2,89.8,1241.6,87.3,1244.6,87.3L1244.6,87.3z"/>
<path class="st0" d="M1345.4,175.2V92.8c0-3,2.4-5.5,5.4-5.5h9.3c3,0,5.4,2.5,5.4,5.5v82.4c0,3.1-2.4,5.5-5.4,5.5h-9.3
	C1347.8,180.7,1345.4,178.3,1345.4,175.2z"/>
<path class="st0" d="M1480.1,175.2V92.8c0-3,2.4-5.5,5.5-5.5h9.2c3,0,5.5,2.5,5.5,5.5v82.4c0,3.1-2.5,5.5-5.5,5.5h-9.2
	C1482.5,180.7,1480.1,178.3,1480.1,175.2z"/>
<path class="st0" d="M1386.5,87.3h75.1c3,0,5.4,2.5,5.4,5.5v9.3c0,3-2.4,5.5-5.4,5.5h-60.3v16.3h47.4c3.1,0,5.5,2.5,5.5,5.5v9.3
	c0,3-2.4,5.5-5.5,5.5h-47.4v31c0,3.1-2.4,5.5-5.5,5.5h-9.3c-3.1,0-5.5-2.4-5.5-5.5V92.8C1381,89.8,1383.4,87.3,1386.5,87.3
	L1386.5,87.3z"/>
</svg>
