<?xml version="1.0" encoding="utf-8"?>
<!-- Generator: Adobe Illustrator 28.0.0, SVG Export Plug-In . SVG Version: 6.00 Build 0)  -->
<svg version="1.1" id="Layer_1" xmlns="http://www.w3.org/2000/svg" xmlns:xlink="http://www.w3.org/1999/xlink" x="0px" y="0px"
	 viewBox="0 0 1550 215" style="enable-background:new 0 0 1550 215;" xml:space="preserve">
<style type="text/css">
	.st0{fill-rule:evenodd;clip-rule:evenodd;fill:#231F20;}
	.st1{fill:#231F20;}
</style>
<path class="st0" d="M142.8,162.2H91c-3.1,0-6.3-2-8.2-5.3l-24-44.8c-1.2-3.3-1.2-6.6,0-9.2l24-44.8c1.9-3.3,5.1-5.3,8.2-5.3h29.7
	c3.2,0,6.3-2,8.3-5.3l21.4-40.1c1.9-3.3-0.6-7.3-3.7-7.3H67c-6.9,0-12.6,4-16.4,9.9L3.2,98.3c-0.7,1.5-1.3,3-1.7,4.6
	c-0.4,1.6-0.6,3.2-0.6,4.9c0,1.7,0.2,3.3,0.6,4.9c0.4,1.6,1,3.1,1.7,4.6L50.6,205c0.8,1.5,1.8,2.8,3,4c1.1,1.2,2.4,2.3,3.9,3.2
	c1.4,0.9,2.9,1.5,4.6,1.9c1.6,0.5,3.2,0.7,4.9,0.7h101.8c3.8,0,5.7-3.9,3.8-7.2l-22.2-40.8c-0.6-3.3-3.7-4.7-7.5-4.7L142.8,162.2z"
	/>
<path class="st1" d="M283.1,39L262.9,3.4c-1.9-3.3-6.3-3.3-8.2,0l-85.3,158.1c-1.3,3.3-1.3,6.6,0,9.2l22.1,41.5
	c1.9,3.3,6.3,3.3,8.2,0l83.4-154.1c0.8-1.5,1.4-3,1.8-4.7c0.4-1.6,0.6-3.2,0.6-4.9c0-1.7-0.2-3.3-0.6-4.9
	C284.5,42,283.9,40.5,283.1,39L283.1,39z"/>
<path class="st0" d="M180.1,111.4l25.3-46.7c1.3-2.7,1.3-6.6,0-9.9l-29.1-52c-1.9-3.3-6.3-3.3-8.2,0l-24.6,45.4
	c-1.3,2.6-1.3,6.6,0,9.2l28.4,53.4C173.8,114.7,178.8,114.7,180.1,111.4L180.1,111.4z"/>
<path class="st1" d="M357.6,39L337.4,3.4c-1.9-3.3-6.3-3.3-8.2,0l-85.3,158.1c-1.2,3.3-1.2,6.6,0,9.2l22.8,41.5
	c1.9,3.3,6.3,3.3,8.2,0l83.4-154.1C361.4,52.1,361.4,44.9,357.6,39L357.6,39z M1070.5,30h12c3.1,0,5,2.7,4.4,6L1054,190.7
	c-0.6,3.3-3.1,5.3-6.3,5.3h-15.8c-3.1,0-5.7-2-6.3-5.3L997.2,76.8c-0.7-3.3-5.7-3.3-6.3,0l-29.1,113.9c-0.6,3.3-3.2,5.3-6.3,5.3
	h-15.8c-3.2,0-5.7-2-6.3-5.3L900.5,36c-0.6-2.7,1.3-6,4.4-6h13.3c3.1,0,5.7,2.7,6.3,6L946,147.3c0.6,3.9,5.7,3.9,6.3,0l29.1-112
	c0.6-3.3,3.1-5.3,6.3-5.3h12c3.2,0,5.7,2,6.3,5.3l29.1,112c0.6,3.3,5.7,3.3,6.3,0L1062.9,36C1064.8,32.1,1067.3,30.1,1070.5,30
	L1070.5,30z M469,120.9c0,11.2,0.7,19.8,1.9,27c1.3,6.6,3.2,12.5,6.4,16.5c3.1,3.9,7.5,6.6,12.6,7.9c5.7,1.3,12.6,2,20.9,2
	c4.4,0,22.7,0,31.6-0.7c2.5,0,5,2,6.3,4.7l3.8,11.2c1.2,3.2-1.3,5.9-4.5,5.9c-11.3,0-35.3,0.6-37.9,0.6c-12.6,0-23.3-1.3-32.2-3.9
	c-8.2-2.6-15.2-7.2-20.2-13.2c-5-5.9-8.8-13.8-10.7-23c-1.9-9.2-3.2-21.1-3.2-34.9v-17.2c0-14.5,1.3-26.3,3.8-35.5
	c2.5-9.2,6.3-17.2,11.4-23.1c5-5.9,12-9.9,20.2-12.5s18.9-3.9,31-3.9c3.7,0,26.5,0,37.9,0.6c3.1,0,5,3.3,4.4,6.6l-3.8,11.2
	c-1.3,2.6-3.8,4.6-6.3,4.6c-9.5,0-30.3-0.6-32.2-0.6c-8.9,0-15.8,0.7-20.9,2c-5.7,1.3-9.5,3.9-12.6,7.2c-3.2,3.9-5.1,9.2-6.4,15.8
	c-1.2,6.6-1.2,15.8-1.2,27L469,120.9L469,120.9z M620.6,71.5c9.5,0,17.7,0.6,24.6,2.6c7,2,12.7,4.6,16.5,9.2
	c4.4,4.7,7.5,10.6,9.4,17.8c2,7.3,3.2,16.5,3.2,27.7v12.5c0,11.2-1.2,20.4-3.2,27.6c-1.9,7.3-5,13.2-9.4,17.8s-10.1,7.3-16.5,9.2
	c-6.9,2-15.1,2.7-24.6,2.7s-17.7-0.7-24.6-2.7c-7-1.9-12.7-4.6-16.5-9.2c-4.4-4.6-7.5-10.5-9.4-17.8c-1.9-7.2-3.2-16.4-3.2-27.6
	v-12.5c0-11.2,1.3-20.4,3.2-27.7c1.9-7.2,5-13.1,9.4-17.8c4.4-4.6,10.1-7.2,16.5-9.2C602.9,72.1,611.1,71.5,620.6,71.5z
	 M650.9,128.8c0-7.9-0.6-14.5-1.2-19.8c-0.7-4.6-2.6-8.6-4.5-11.2s-5-4.6-8.8-5.3c-3.8-0.6-8.9-1.3-15.2-1.3s-11.4,0.7-15.1,1.3
	c-3.8,0.7-7,2.7-8.9,5.3c-1.9,2.6-3.8,6.6-4.4,11.2c-0.6,4.6-1.3,11.2-1.3,19.8v12.5c0,7.9,0.7,14.5,1.3,19.8
	c0.6,4.6,2.5,8.5,4.4,11.2c1.9,2.6,5,4.6,8.9,5.2c3.8,0.7,8.8,1.3,15.1,1.3s11.4-0.6,15.2-1.3c3.8-0.6,6.9-2.6,8.8-5.2
	c2-2.7,3.8-6.6,4.5-11.2c0.6-4.7,1.2-11.3,1.2-19.8V128.8z M702.1,195.3c-2.5,0-4.4-2-4.4-4.6V113c0-7.3,1.2-13.2,3.1-17.8
	c1.9-4.6,5.1-8.6,8.9-11.9c3.8-3.3,8.2-5.3,13.9-6.6c5-1.3,11.4-1.9,17.7-1.9h23.3c3.2,0,5.1,3.2,4.4,6.5l-3.8,9.3
	c-1.2,2.6-3.7,4.6-6.3,4.6h-15.1c-5.1,0-9.5,0.6-12.1,1.3c-3.1,0.6-5,2.6-6.9,4.6c-1.2,2-2.5,4.6-2.5,7.2c-0.7,2.7-0.7,6-0.7,9.9
	v72.4c0,2.7-1.9,4.7-4.4,4.7H702.1L702.1,195.3z M804.4,144.6c-2.5,0-4.4,1.9-4.4,4.6c0,4.6,0.6,7.9,0.6,11.2
	c0.7,3.9,1.9,7.2,3.8,9.2c1.9,2.6,5.1,3.9,8.2,4.6c3.8,0.7,8.3,1.3,14.6,1.3c3.1,0,27.8,0,38.5-0.6c2.5,0,5.7,2,6.3,4.6l3.2,9.2
	c1.2,3.3-1.3,5.9-4.4,6.6c-12.7,0-41.1,0.6-43.6,0.6c-10.8,0-19-1.3-25.9-3.9c-7-2.6-12-5.9-15.8-11.2c-3.8-4.6-6.3-10.5-7.6-17.1
	c-1.2-6.6-1.9-14.5-1.9-22.4v-13.2c0-8.5,0.6-16.4,1.9-23.7s3.8-13.2,7.6-17.8s8.8-8.6,15.8-11.2c6.9-2.6,15.8-3.9,26.5-3.9
	c10.1,0,18.3,1.3,24.6,3.3c6.3,2.6,11.4,5.9,15.2,9.8c3.8,4,6.3,8.6,7.6,14.5c1.2,5.3,1.9,11.2,1.9,16.5v3.9c0,5.3-0.6,9.9-0.6,13.2
	c-0.7,3.3-1.3,5.9-3.2,7.2c-1.2,2-3.1,3.3-5.1,3.3c-1.9,0.7-4.4,0.7-7.5,0.7L804.4,144.6L804.4,144.6z M827.8,90.6
	c-5.7,0-10.7,0.7-14.5,1.3c-3.8,0.7-6.3,2.7-8.2,5.3c-1.9,2.6-3.2,5.9-3.8,10.6c-0.6,3.3-0.6,7.9-0.6,12.5c0,2.6,1.9,4.6,4.4,4.6
	h46.7c2.6,0,4.4-2,4.4-4.6V117c0-5.3-0.6-9.2-1.2-13.2c-0.6-3.3-2.6-5.9-4.4-7.9c-1.9-2-5.1-3.3-8.9-3.9
	C837.9,91.3,833.5,90.7,827.8,90.6L827.8,90.6z M1124.1,144.6c-2.5,0-4.4,1.9-4.4,4.6c0,4.6,0.6,7.9,1.3,11.2
	c0.6,3.9,1.9,7.2,3.7,9.2c1.9,2.6,5.1,3.9,8.3,4.6c3.7,0.7,8.2,1.3,14.5,1.3c3.1,0,27.8,0,38.5-0.6c2.5,0,5.1,2,6.3,4.6l3.2,9.2
	c1.2,3.3-1.3,5.9-4.4,6.6c-12.7,0-41.1,0.6-43.6,0.6c-10.8,0-19-1.3-25.9-3.9c-6.3-2.6-12-5.9-15.8-11.2c-3.8-4.6-6.3-10.5-7.6-17.1
	c-1.2-6.6-1.9-14.5-1.9-22.4v-13.2c0-8.5,0.6-16.4,1.9-23.7s3.8-13.2,7.6-17.8c3.8-4.6,8.8-8.6,15.8-11.2c6.9-2.6,15.8-3.9,26.5-3.9
	c10.1,0,18.3,1.3,24.7,3.3c6.3,2.6,11.3,5.9,15.1,9.8c3.8,4,6.3,8.6,7.6,14.5c1.2,5.9,1.9,11.2,1.9,16.5v3.9c0,5.3,0,9.9-0.6,13.2
	c-0.7,3.3-1.3,5.9-3.2,7.2c-1.2,2-3.1,3.3-5.1,3.3c-1.9,0.7-4.4,0.7-6.9,0.7C1181.6,143.9,1124.1,144.5,1124.1,144.6L1124.1,144.6z
	 M1146.9,90.6c-5.7,0-10.8,0.6-14.6,1.3c-3.8,0.6-6.3,2.6-8.2,5.2c-1.9,2.7-3.2,6-3.8,10.6c-0.6,3.3-0.6,7.9-1.3,12.5
	c0,2.6,2,4.6,4.5,4.6h46.7c2.6,0,4.4-2,4.4-4.6v-3.3c0-5.3-0.6-9.2-1.2-13.2c-0.6-3.2-2.6-5.9-4.4-7.9c-1.9-2-5.1-3.3-8.9-3.9
	C1157,91.2,1152.5,90.6,1146.9,90.6z M1476.6,144.6c-2.5,0-4.4,2-4.4,4.6c0,4.6,0.6,7.9,0.6,11.2c0.7,3.9,2,7.2,3.8,9.2
	c1.9,2.7,5.1,4,8.3,4.6c3.7,0.7,8.2,1.4,14.5,1.4c3.1,0,27.8,0,38.5-0.7c2.5,0,5.7,2,6.3,4.6l3.2,9.2c1.2,3.3-1.3,6-4.4,6.6
	c-12.7,0-41.1,0.7-43.6,0.7c-10.8,0-19-1.3-25.9-4c-7-2.6-12-5.9-15.8-11.2c-3.8-4.6-6.3-10.5-7.6-17.1c-1.2-6.6-1.9-14.5-1.9-22.4
	v-13.2c0-8.5,0.6-16.4,1.9-23.7c1.3-7.2,3.8-13.1,7.6-17.8c3.8-4.6,8.8-8.5,15.8-11.2c6.9-2.6,15.8-3.9,26.5-3.9
	c10.1,0,18.3,1.3,24.6,3.3c6.3,2.6,11.4,5.9,15.2,9.9c3.8,3.9,6.3,8.5,7.6,14.4c1.2,5.3,1.9,11.2,1.9,16.5v4c0,5.2-0.6,9.8-0.6,13.1
	c-0.7,3.3-1.3,6-3.2,7.3c-1.2,1.9-3.1,3.3-5.1,3.3c-1.9,0.6-4.4,0.6-7.5,0.6l-56.2,0.7L1476.6,144.6z M1499.9,90.6
	c-5.7,0-10.7,0.6-14.5,1.3c-3.8,0.6-6.3,2.6-8.2,5.2c-1.9,2.7-3.2,6-3.8,10.6c-0.7,3.3-0.7,7.9-0.7,12.5c0,2.6,2,4.6,4.5,4.6h46.7
	c2.6,0,4.4-2,4.4-4.6v-3.3c0-5.3-0.6-9.2-1.2-13.2c-0.6-3.2-2.6-5.9-4.4-7.9c-1.9-2-5.1-3.3-8.9-3.9
	C1509.4,91.2,1505,90.6,1499.9,90.6z M1315.5,175.6c0,7.2-1.9,12.5-5.1,15.7c-3.2,3.3-9.5,4.7-17.7,4.7h-33.4
	c-15.8,0-26.6-3.3-33.5-9.2c-7-6-10.1-15.2-10.1-27v-5.3c0-13.2,3.7-22.4,11.3-27.7c7.6-5.2,19-8.5,34.8-8.5
	c8.9,0,15.8,0.6,20.8,1.9c2.6,0.7,5.1,1.4,6.4,2.7c1.9,0.6,4.4-0.7,4.4-3.3v-1.3c0-4,0-7.2-0.6-9.9c-0.7-2.6-2-5.3-3.8-7.2
	c-1.9-2-5.1-3.3-8.9-4.6c-3.8-0.7-8.8-1.3-15.8-1.3c-5,0-27.1,0-37.3,0.6c-2.5,0-5-2-6.3-4.6l-3.1-9.2c-1.3-3.3,1.2-6,3.7-6
	c12.1,0,38-0.6,42.4-0.6c18.3,0,30.9,3.3,39.1,9.9c8.3,6.5,12,16.4,12,28.9L1315.5,175.6z M1237.1,159.8c0,5.3,1.3,9.2,4.4,12.5
	c3.2,2.6,8.9,3.9,17.1,3.9h29.7c2.5,0,4.4-2,4.4-4.6v-16.5c0-2.6-0.7-5.2-0.7-7.9c-0.6-2-1.9-3.9-3.7-5.3c-1.9-1.3-4.4-2.6-7.6-2.6
	c-3.2-0.6-8.2-0.6-13.9-0.6h-5.1c-5,0-8.8,0-12,0.6c-3.1,0.7-5.7,1.3-7.5,2.6c-2,1.4-3.2,3.3-3.8,5.3c-0.7,2-1.3,4.6-1.3,7.9V159.8
	L1237.1,159.8z M1352.1,80.1l26.5,79.7c1.3,3.2,5.1,3.2,6.3,0l27.8-79.7c0.7-2.7,3.8-4.7,6.4-4.7h13.2c3.2,0,5.1,3.3,4.4,6.6
	l-40.4,109.3c-1.3,2.7-3.8,4.7-6.3,4.7h-15.8c-2.5,0-5.1-2-6.3-4.7L1327.4,82c-1.2-3.3,1.3-6.6,4.4-6.6h14.6c2.5,0,5,2,5.6,4.7
	L1352.1,80.1z"/>
</svg>
