<?xml version="1.0" encoding="utf-8"?>
<!-- Generator: Adobe Illustrator 28.0.0, SVG Export Plug-In . SVG Version: 6.00 Build 0)  -->
<svg version="1.1" id="Layer_1" xmlns="http://www.w3.org/2000/svg" xmlns:xlink="http://www.w3.org/1999/xlink" x="0px" y="0px"
	 viewBox="0 0 201.9 40.1" style="enable-background:new 0 0 201.9 40.1;" xml:space="preserve">
<path d="M60.5,20.2c0-3.7-13.5-6.6-30.3-6.6c-5.8,0-11.6,0.4-17.3,1.2c0.1-0.2,0.1-0.5,0.2-0.7c2.9-7.7,11-13.3,20.7-13.3
	c2.7,0,5.3,0.4,7.8,1.3c-3.1-1.3-6.5-2-9.9-2C21.5,0,12.8,6.2,10.2,14.6C10,15,9.9,15.4,9.8,15.8c-0.3,1.4-0.5,2.9-0.5,4.3
	c0,0.6,0,1.2,0.1,1.8c0.9,0.3,1.9,0.5,2.9,0.8c-0.1-0.9-0.2-1.7-0.2-2.6c0-1.4,0.2-2.8,0.5-4.1c6.2-1,12.4-1.5,18.7-1.5
	C46.6,14.5,59,17,59,20.1s-12.4,5.6-27.6,5.6S3.7,23.2,3.7,20.1c0-1.1,1.5-2.1,4.1-2.9c0.1-0.5,0.2-0.9,0.3-1.4v-0.1
	c-5,1.2-8.1,2.8-8.1,4.5c0,2,3.9,3.7,10.1,5c2.5,8.6,11.3,15,21.8,15c3.4,0,6.8-0.7,9.9-2c-2.5,0.9-5.2,1.3-7.8,1.3
	c-9.8,0-18.1-5.8-20.8-13.8c5.7,0.8,11.4,1.2,17.2,1.2C47,26.9,60.5,23.9,60.5,20.2L60.5,20.2L60.5,20.2z"/>
<path d="M130.8,26.1c1.2,1.3,2.8,2,4.5,2c2.1,0,3.9-1.1,3.9-3.3c0-4.5-9.5-1.9-9.5-8.2c0-3.3,2.9-5.2,6-5.2c2.2,0,3.7,0.9,5.4,2.1
	l-1.2,1.6c-1.2-1-2.7-1.6-4.3-1.7c-2,0-3.8,1-3.8,3c0,4.5,9.5,1.5,9.5,8.2c0,3.8-2.9,5.5-6.4,5.5c-2.2,0-4.3-1-5.7-2.7L130.8,26.1
	L130.8,26.1L130.8,26.1z"/>
<path d="M154.9,4.6c-7.1,0-12.9,5.8-13,12.9c0,7.2,5.8,13,13,13s13-5.8,13-13C167.9,10.3,162.1,4.6,154.9,4.6L154.9,4.6L154.9,4.6z
	 M154.9,6.8c5.8,0.1,10.6,4.8,10.6,10.7c0,5.9-4.7,10.6-10.6,10.6s-10.6-4.7-10.6-10.6c0,0,0,0,0,0C144.3,11.6,149,6.9,154.9,6.8
	L154.9,6.8L154.9,6.8z"/>
<path d="M201.9,15.5c-1.5-2.6-4.2-4.2-7.1-4.2c-5.4,0-9.4,3.8-9.4,9.2s3.8,9.7,9.3,9.7c2.5,0,4.8-0.9,6.7-2.5v-2.5
	c-1.9,1.6-4.2,3-6.8,3c-2.8-0.1-5.2-1.7-6.4-4.2L201.9,15.5L201.9,15.5L201.9,15.5z M187.6,22c-0.1-0.5-0.1-1-0.1-1.5
	c-0.1-3.9,3.1-7.1,7-7.2c0.1,0,0.2,0,0.3,0c1.4,0,2.8,0.5,3.9,1.6L187.6,22L187.6,22L187.6,22z"/>
<path d="M77.5,28.1c-5.8-0.1-10.6-4.8-10.6-10.7c0-5.9,4.7-10.6,10.6-10.7c2.7,0,5.3,1.1,7.2,3v-3c-5.9-4-14-2.5-18.1,3.5
	c-1.5,2.1-2.2,4.7-2.2,7.2c0,7.2,5.9,13,13.1,12.9c2.6,0,5.1-0.8,7.2-2.2v-3C82.8,27.1,80.2,28.1,77.5,28.1L77.5,28.1L77.5,28.1z"/>
<path d="M125.8,19.9c0,7.3-2.2,8.5-5.5,8.5c-3.1,0-4.4-1.8-4.4-5.1V11.3h-2.1v12.2c0,4.1,1.7,6.7,6.3,6.7c2.3,0.1,4.5-1.1,5.6-3.1
	h0.1v3.2h2.1v-19h-2.1L125.8,19.9C125.8,19.9,125.8,19.9,125.8,19.9z"/>
<path d="M171.8,14.3L171.8,14.3l-0.1-3h-2.1v19h2.1V18.1c0-3.5,3.4-4.9,5.4-4.9c2.9,0,4.6,1.4,4.6,4v13.1h2.1V17.7
	c0-4.6-2.8-6.1-6-6.3h-1.2C174.5,11.5,172.8,12.6,171.8,14.3L171.8,14.3L171.8,14.3z"/>
<path d="M111.8,11.3c-2.9,0.2-4.7,1.2-5.9,4h-0.1v-4h-2.1v18.9h2.1v-9.5c0-4.5,2.8-7.3,5-7.3h1.7v-2.1L111.8,11.3L111.8,11.3
	L111.8,11.3z"/>
<polygon points="94.3,24.4 87.1,11.3 84.8,11.3 93.1,26.6 88.8,35.6 91,35.6 102.8,11.3 100.6,11.3 94.3,24.4 "/>
</svg>
