<?xml version="1.0" encoding="utf-8"?>
<!-- Generator: Adobe Illustrator 28.0.0, SVG Export Plug-In . SVG Version: 6.00 Build 0)  -->
<svg version="1.1" id="Artwork" xmlns="http://www.w3.org/2000/svg" xmlns:xlink="http://www.w3.org/1999/xlink" x="0px" y="0px"
	 viewBox="0 0 1018.6 360" style="enable-background:new 0 0 1018.6 360;" xml:space="preserve">
<g>
	<path d="M931.7,191.6l24.3,44.5l25.6-44.5h25.9l-39.8,68.2v40.3h-23.2v-40.3l-39.8-68.2H931.7z M901.8,191.6v20h-31.3v88.5h-23.2
		v-88.5h-31.3v-20H901.8z M788.5,191.6h-23.2v108.5h69.4v-20h-46.2L788.5,191.6L788.5,191.6z M690.7,191.6h27.9L758,300.1H733
		l-8.4-23.7h-41.2l-8.4,23.7h-24L690.7,191.6z M718.3,257.6l-14.4-41.2l-14.3,41.2H718.3z M643.1,191.6v20h-49.6v24.3h40.3V255
		h-40.3v25.1h51.3v20h-74.5V191.6L643.1,191.6L643.1,191.6z M537.5,196c6,2.9,10.7,7.2,14,12.6c3.3,5.5,5,11.8,5,19.1
		c0,6.9-1.7,13-5,18.4c-3.3,5.3-7.9,9.4-13.6,12.2l21.4,41.8h-25.7l-18.1-36.4h-19.7v36.4h-23.2V191.6h44.2
		C524.5,191.6,531.5,193.1,537.5,196z M514.8,244.3c5.5,0,9.8-1.5,13.1-4.5c3.3-3,4.9-7,4.9-12.1c0-5.2-1.6-9.2-4.9-12.2
		c-3.3-3-7.6-4.5-13.1-4.5h-19.1v33.3H514.8z M972.4,148.4V59.9h-23.2v108.5h69.4v-20L972.4,148.4L972.4,148.4z M874.6,59.9h27.9
		l39.4,108.5h-24.9l-8.4-23.7h-41.2l-8.4,23.7h-24L874.6,59.9z M902.2,125.9l-14.4-41.2l-14.3,41.2H902.2z M848.6,59.9v20h-31.3
		v88.5H794V79.9h-31.3v-20L848.6,59.9L848.6,59.9z M753.3,59.9v108.5H730V59.9H753.3z M637.6,65.8c8.1-4.5,17.6-6.8,28.6-6.8
		c8.6,0,16.3,1.7,23.1,5c6.8,3.3,12.3,8,16.5,13.9c4.2,6,6.7,12.9,7.7,20.6h-22.9c-1.4-6.1-4.3-10.9-8.7-14.5
		c-4.3-3.6-9.8-5.3-16.3-5.3c-6,0-11.2,1.5-15.7,4.5c-4.4,3-7.9,7.2-10.2,12.6c-2.4,5.4-3.6,11.5-3.6,18.4c0,10.6,2.6,19.2,7.8,25.7
		c5.2,6.5,12.4,9.8,21.6,9.8c6.7,0,12.7-1.8,17.8-5.5c5.2-3.7,8.3-9.1,9.3-16.2v-1.4h-27v-18.4h48.5v60.3h-16.1l-2.5-13.5
		c-3.2,4.2-7.5,7.7-12.9,10.4s-11.6,4-18.7,4c-10.2,0-19.2-2.3-27-6.8c-7.8-4.5-13.8-11-18.1-19.4c-4.3-8.4-6.4-18-6.4-29
		c0-11.1,2.2-20.7,6.5-29.1S629.5,70.3,637.6,65.8z M600.3,59.9v108.5h-23.2V59.9H600.3z M510.2,59.9c10.8,0,20.4,2.3,28.7,6.9
		c8.3,4.6,14.7,11,19.2,19.2c4.5,8.2,6.7,17.6,6.7,28.1c0,10.5-2.2,19.9-6.7,28.1c-4.5,8.2-10.9,14.6-19.2,19.2
		c-8.3,4.6-17.9,6.9-28.7,6.9h-37.7V59.9H510.2z M533,139.5c5.4-6.4,8.1-14.8,8.1-25.3c0-10.5-2.7-19-8.1-25.3
		c-5.4-6.4-13-9.5-22.9-9.5h-14.4V149h14.4C520,149,527.6,145.8,533,139.5z"/>
	<path d="M240,360v-45c41.4,0,75-33.6,75-75h45C360,306.2,306.2,360,240,360z M240,0v45c41.4,0,75,33.6,75,75h45
		C360,53.8,306.2,0,240,0z M120,315H45v-75H0v120h120V315z M45,45h75V0H0v120h45V45z"/>
</g>
</svg>
