<?xml version="1.0" encoding="utf-8"?>
<!-- Generator: Adobe Illustrator 28.0.0, SVG Export Plug-In . SVG Version: 6.00 Build 0)  -->
<svg version="1.1" id="Layer_1" xmlns="http://www.w3.org/2000/svg" xmlns:xlink="http://www.w3.org/1999/xlink" x="0px" y="0px"
	 viewBox="0 0 1115.9 175" style="enable-background:new 0 0 1115.9 175;" xml:space="preserve">
<g>
	<g>
		<g>
			<path d="M296.5,93.6l41.1-0.1l-0.1-11l-41.1,0.1l-0.1-24.2l61.1-0.1l-0.1-11.1L284,47.3l0.2,84.9l75.9-0.2v-11.1l-63.6,0.1V93.6z
				"/>
		</g>
		<g>
			<path d="M620,97.7c0,15.2-10.2,25.1-25,25.1c-14.4,0-23.3-10.1-23.4-24.9L571.5,47h-12.3l0.1,51.3c0,23.3,16.5,35.6,35.7,35.6
				c28,0,37.3-19.1,37.3-35.7l-0.1-51.3h-12.3L620,97.7L620,97.7z"/>
		</g>
		<g>
			<path d="M712.8,46.6h-12.3l0.3,84.9h12.3L712.8,46.6z"/>
		</g>
		<g>
			<path d="M858,112.5l-60.4-66h-11.9l0.2,84.8h12.3l-0.1-66.9l60.4,66.8h11.9l-0.2-84.9h-12.3L858,112.5z"/>
		</g>
		<g>
			<path d="M956.2,46.1h-12.3l0.2,84.9h12.4L956.2,46.1z"/>
		</g>
		<g>
			<path d="M1074.6,84.5l35.1-39.1l-14.8,0.1L1067,76.1l-27.7-30.6l-15.7,0.1l34.1,38.9l-42.3,46.3h15.2l35.2-37.8l33.2,37.6h16.9
				L1074.6,84.5z"/>
		</g>
		<g>
			<path d="M452.5,43.7c-25.5,0-44.9,19.2-44.8,45.8v0.4c0,26.7,20,45.3,45,44.8c6.4,0,13.9-1.7,19.9-4.7l6.8,8.1h13.9L481,124.2
				c9.8-7.7,16-20,16-35.3v-0.4C497.5,62.4,477.6,43.2,452.5,43.7 M484.8,89.5c0,11.9-3.8,19.9-11,26.3l-6.8-7.7h-13.9l11.5,13.1
				c-3,1.3-8.1,2.6-11.9,2.6c-18.2,0-32.7-14.3-32.7-34.3v-0.4c0-20.3,13.5-34.9,31.8-34.9C470.4,54.4,484.8,68.7,484.8,89.5"/>
		</g>
	</g>
	<g>
		<g>
			<path d="M249.8,40.2l0.2,78.3l-17.7,6.3l-0.2-90.7l-53.6-18.6l0.3,128.2l-17.7,6.3L160.7,9.2l-27-9.2l-26.6,9.3l0.3,140.6
				l-18.1-6.2L88.9,15.5L35.5,34.4l0.2,90.7L18,118.9l-0.2-78.3L0,46.9l0.2,84.9l53.6,18.6L53.6,47.2l17.7-6.3l0.2,115.7l53.6,18.3
				L124.8,22l8.9-3l8.9,3l0.3,152.9l53.6-18.5l-0.3-115.6l18.1,6.2l0.2,103.2l53.5-18.8l-0.2-84.8L249.8,40.2z"/>
		</g>
	</g>
</g>
</svg>
