<?xml version="1.0" encoding="utf-8"?>
<!-- Generator: Adobe Illustrator 28.0.0, SVG Export Plug-In . SVG Version: 6.00 Build 0)  -->
<svg version="1.1" id="Layer_1" xmlns="http://www.w3.org/2000/svg" xmlns:xlink="http://www.w3.org/1999/xlink" x="0px" y="0px"
	 viewBox="0 0 176.9 28" style="enable-background:new 0 0 176.9 28;" xml:space="preserve">
<path d="M20.8,7.4h1l2.9-2.8l0.1-1.2C19.5-1.3,11.4-0.8,6.7,4.5C5.4,6,4.5,7.7,4,9.6c0.3-0.1,0.7-0.2,1-0.1l5.7-0.9
	c0,0,0.3-0.5,0.4-0.4C13.6,5.4,17.9,5,20.8,7.4L20.8,7.4z"/>
<path d="M28.7,9.6c-0.7-2.4-2-4.6-3.9-6.2l-4,4c1.7,1.4,2.7,3.5,2.6,5.6v0.7c2,0,3.6,1.6,3.6,3.6s-1.6,3.6-3.6,3.6h-7.1l-0.7,0.7
	v4.3l0.7,0.7h7.1c5.1,0,9.3-4.1,9.3-9.2C32.8,14.2,31.3,11.3,28.7,9.6z"/>
<path d="M9.2,26.5h7.1v-5.7H9.2c-0.5,0-1-0.1-1.5-0.3l-1,0.3l-2.9,2.8l-0.2,1C5.2,25.8,7.2,26.5,9.2,26.5z"/>
<path d="M9.2,8C4.1,8,0,12.2,0,17.3c0,2.9,1.4,5.5,3.6,7.3l4.1-4.1C6,19.7,5.2,17.6,6,15.8s2.9-2.6,4.7-1.8c0.8,0.4,1.4,1,1.8,1.8
	l4.1-4.1C14.8,9.3,12.1,8,9.2,8z"/>
<path d="M51.7,22.5c-2.5,0-4.9-0.9-6.6-2.7c-1.8-1.7-2.8-4.1-2.8-6.5c0-2.5,1-4.8,2.8-6.5C46.9,5,49.3,4,51.7,4
	c2.4,0,4.6,0.9,6.3,2.6l-1.8,1.8c-1.2-1.2-2.9-1.8-4.5-1.8c-1.8,0-3.5,0.7-4.7,2c-1.3,1.3-2,3-1.9,4.8c0,1.8,0.7,3.5,1.9,4.7
	c2.6,2.6,6.7,2.6,9.4,0.1c0.8-0.9,1.3-2,1.4-3.1h-6v-2.6h8.5c0.1,0.5,0.1,1,0.1,1.6c0.1,2.2-0.7,4.3-2.2,5.9
	C56.5,21.6,54.2,22.6,51.7,22.5z M71.5,20.8c-2.4,2.3-6.1,2.3-8.5,0c-1.1-1.1-1.8-2.7-1.7-4.2c0-1.6,0.6-3.1,1.7-4.2
	c2.4-2.3,6.1-2.3,8.5,0c1.1,1.1,1.8,2.7,1.7,4.2C73.3,18.2,72.6,19.7,71.5,20.8L71.5,20.8z M64.9,19.1c1.2,1.3,3.3,1.4,4.6,0.2
	c0.1,0,0.1-0.1,0.2-0.2c0.7-0.7,1-1.6,1-2.6c0-1-0.3-1.9-1-2.6c-1.3-1.3-3.3-1.4-4.7-0.1c0,0-0.1,0.1-0.1,0.1c-0.7,0.7-1,1.6-1,2.6
	C63.8,17.5,64.2,18.5,64.9,19.1L64.9,19.1z M84.5,20.8c-2.4,2.3-6.1,2.3-8.5,0c-1.1-1.1-1.8-2.7-1.7-4.2c0-1.6,0.6-3.1,1.7-4.2
	c2.4-2.3,6.1-2.3,8.5,0c1.1,1.1,1.8,2.7,1.7,4.2C86.3,18.2,85.7,19.7,84.5,20.8z M77.9,19.1c1.2,1.3,3.3,1.4,4.6,0.2
	c0.1,0,0.1-0.1,0.2-0.2c0.7-0.7,1-1.6,1-2.6c0-1-0.3-1.9-1-2.6c-1.3-1.3-3.3-1.4-4.7-0.1c0,0-0.1,0.1-0.1,0.1c-0.7,0.7-1,1.6-1,2.6
	C76.9,17.5,77.2,18.5,77.9,19.1L77.9,19.1z M93.1,27.8c-1.2,0-2.4-0.3-3.3-1.1c-0.8-0.6-1.5-1.5-1.9-2.5l2.3-1
	c0.2,0.6,0.6,1.1,1.1,1.5c0.5,0.4,1.2,0.6,1.9,0.6c0.9,0.1,1.7-0.3,2.3-0.9c0.6-0.7,0.9-1.7,0.8-2.6v-0.9h-0.1
	c-0.8,0.9-1.9,1.4-3.1,1.4c-1.5,0-3-0.6-4-1.7c-1.1-1.1-1.7-2.6-1.7-4.2c0-1.6,0.6-3.1,1.7-4.2c1-1.1,2.5-1.8,4-1.8
	c0.6,0,1.3,0.1,1.8,0.4c0.5,0.2,0.9,0.5,1.3,0.9h0.1V11h2.5v10.6c0.1,1.7-0.4,3.4-1.6,4.6C96,27.3,94.6,27.9,93.1,27.8z M93.2,20.2
	c0.9,0,1.7-0.3,2.3-1c0.6-0.7,0.9-1.6,0.9-2.6c0-1-0.3-1.9-0.9-2.6c-0.6-0.7-1.4-1-2.3-1c-0.9,0-1.7,0.3-2.3,1c-0.7,0.7-1,1.6-1,2.6
	c0,1,0.3,1.9,1,2.6C91.5,19.8,92.4,20.2,93.2,20.2z M103.1,4.7v17.5h-2.6V4.7L103.1,4.7z M110.3,22.5c-1.6,0-3.1-0.6-4.2-1.7
	c-1.1-1.1-1.7-2.7-1.7-4.2c-0.1-1.6,0.5-3.1,1.6-4.3c1-1.1,2.5-1.7,4-1.7c0.7,0,1.4,0.1,2,0.4c0.6,0.2,1.1,0.6,1.5,1
	c0.4,0.4,0.7,0.8,1,1.2c0.2,0.4,0.4,0.8,0.6,1.2l0.3,0.7l-8,3.3c0.5,1.1,1.6,1.9,2.9,1.8c1.2,0,2.3-0.6,2.9-1.6l2,1.4
	c-0.5,0.7-1.2,1.3-1.9,1.8C112.4,22.2,111.4,22.5,110.3,22.5z M107,16.4l5.3-2.2c-0.2-0.4-0.5-0.7-0.8-0.9c-0.4-0.2-0.9-0.4-1.4-0.4
	c-0.8,0-1.6,0.4-2.2,0.9C107.2,14.5,106.9,15.4,107,16.4z"/>
<path d="M129.1,22.5c-4.6,0.1-8.3-3.5-8.4-8.1c0-0.1,0-0.2,0-0.3c-0.1-4.5,3.5-8.3,8-8.4c0.1,0,0.2,0,0.3,0c2.3-0.1,4.5,0.9,5.9,2.6
	l-1.4,1.4c-1.1-1.4-2.7-2.1-4.5-2.1c-1.7,0-3.3,0.6-4.5,1.8c-1.2,1.2-1.9,2.9-1.8,4.7c-0.1,1.7,0.6,3.4,1.8,4.7
	c1.2,1.2,2.8,1.8,4.5,1.8c1.9,0,3.8-0.8,5-2.3l1.4,1.4c-0.8,0.9-1.7,1.6-2.8,2.1C131.6,22.3,130.4,22.5,129.1,22.5z"/>
<path d="M139.4,22.1h-2.1V6h2.1V22.1z"/>
<path d="M142.8,12.4c2.3-2.2,5.9-2.2,8.2,0c1.1,1.1,1.6,2.6,1.6,4.2c0,1.6-0.5,3.1-1.6,4.2c-2.3,2.2-5.9,2.2-8.2,0
	c-1.1-1.1-1.6-2.6-1.6-4.2C141.1,15.1,141.7,13.6,142.8,12.4z M144.3,19.5c1.3,1.4,3.5,1.5,4.9,0.1c0,0,0.1-0.1,0.1-0.1
	c0.7-0.8,1.1-1.8,1.1-2.9c0-1.1-0.3-2.1-1.1-2.9c-1.3-1.4-3.5-1.5-4.9-0.1c0,0-0.1,0.1-0.1,0.1c-0.7,0.8-1.1,1.8-1.1,2.9
	C143.2,17.7,143.6,18.7,144.3,19.5L144.3,19.5z"/>
<path d="M164,22.1h-2v-1.5H162c-0.4,0.6-0.9,1.1-1.5,1.4c-0.6,0.4-1.3,0.6-2.1,0.5c-1.2,0.1-2.3-0.4-3.1-1.3c-0.8-1-1.1-2.2-1.1-3.4
	v-6.8h2.1v6.4c0,2.1,0.9,3.1,2.7,3.1c0.8,0,1.6-0.3,2.1-1c0.5-0.7,0.8-1.5,0.8-2.4v-6.1h2.1V22.1z"/>
<path d="M171,22.5c-1.4,0-2.8-0.6-3.7-1.7c-1-1.1-1.6-2.6-1.6-4.2c0-1.5,0.5-3,1.6-4.2c0.9-1.1,2.3-1.7,3.7-1.7
	c0.8,0,1.6,0.2,2.3,0.5c0.6,0.3,1.1,0.8,1.5,1.4h0.1l-0.1-1.5V6h2.1v16.1h-2v-1.5h-0.1c-0.4,0.6-0.9,1-1.5,1.4
	C172.6,22.3,171.8,22.5,171,22.5z M171.4,20.6c0.9,0,1.9-0.4,2.5-1.1c0.7-0.8,1.1-1.8,1-2.9c0.1-1.1-0.3-2.1-1-2.9
	c-1.3-1.4-3.4-1.5-4.8-0.2c-0.1,0.1-0.2,0.1-0.2,0.2c-0.7,0.8-1.1,1.8-1,2.9c-0.1,1.1,0.3,2.1,1,2.9
	C169.5,20.2,170.4,20.6,171.4,20.6z"/>
</svg>
