<?xml version="1.0" encoding="utf-8"?>
<!-- Generator: Adobe Illustrator 28.0.0, SVG Export Plug-In . SVG Version: 6.00 Build 0)  -->
<svg version="1.1" id="Layer_1" xmlns="http://www.w3.org/2000/svg" xmlns:xlink="http://www.w3.org/1999/xlink" x="0px" y="0px"
	 viewBox="0 0 167.8 36.6" style="enable-background:new 0 0 167.8 36.6;" xml:space="preserve">
<path d="M53.1,25.8h9.6v4.6H47.6V6h5.5V25.8z M0,0h36.6v36.6H0V0z M3.2,33.4h30.2V3.2H3.2V33.4z M9.7,6.1l6.4,11.3L9,30.5h4.6
	l4.7-8.9l5,8.9h4.7L14.3,6.1L9.7,6.1z M103.4,12.3c-1.2,0-2.3,0.3-3.3,0.9c-0.9,0.5-1.7,1.3-2.3,2.1h-0.1c-0.8-1.8-2.5-3-4.8-3
	c-3,0-4.5,1.7-5.3,2.8h-0.1l-0.2-2.4h-4.4v17.7h5.3V20.1c0-0.5,0.1-0.9,0.2-1.4c0.3-0.9,1.1-2,2.5-2c1.7,0,2.5,1.5,2.5,3.8v9.9h5.3
	V20.1c0-0.5,0.1-1,0.2-1.4c0.2-0.5,0.5-1,0.9-1.4s1-0.5,1.6-0.5c1.8,0,2.6,1.5,2.6,4.1v9.6h5.3V20C109.3,14.7,106.7,12.3,103.4,12.3
	z M144.4,5.3h5.4v25.1h-4.7l-0.2-2.6h-0.1c-1.1,2-3.2,3-5.5,3c-4.1,0-7.5-3.6-7.5-9.1c0-6,3.6-9.4,7.8-9.4c2.1,0,3.8,0.8,4.6,2h0.1
	V5.3z M144.4,20.2c0-0.3,0-0.7-0.1-1c-0.3-1.5-1.5-2.7-3.2-2.7c-2.5,0-3.8,2.2-3.8,5c0,3,1.5,4.9,3.7,4.9c0.7,0,1.5-0.3,2.1-0.7
	c0.6-0.5,1-1.2,1.1-1.9c0.1-0.4,0.2-0.8,0.1-1.3L144.4,20.2z M167.9,19.9v10.5h-4.7l-0.3-1.8h-0.1c-1.1,1.4-2.9,2.2-5,2.2
	c-3.6,0-5.7-2.6-5.7-5.4c0-4.6,4.6-5.9,10.3-5.9v-1.1c0-0.9-0.5-2.3-3.2-2.3c-1.4,0-2.8,0.3-4.1,0.9l-1.7-3.1
	c1.2-0.7,3.6-1.6,6.8-1.6C166,12.3,167.9,15.8,167.9,19.9L167.9,19.9z M162.5,22.7c-3,0-5.4,0.2-5.5,2.4c0,1.4,1.3,1.8,2.5,1.8
	c0.6,0,1.2-0.2,1.7-0.6c0.5-0.4,0.9-0.9,1.1-1.5c0.1-0.3,0.1-0.6,0.1-0.9V22.7z M129.8,21.2c0,6.4-4,9.5-7.9,9.5c-2,0-4-0.8-5.2-2.9
	h-0.1l-0.2,2.5H112v-25h5.4v9.5h0.1c1-1.5,2.8-2.5,5.2-2.5C126.8,12.3,129.8,15.8,129.8,21.2L129.8,21.2z M124.3,21.5
	c0-2.7-1.2-4.9-3.7-4.9c-1.4,0-2.8,1.1-3.1,2.7c-0.1,0.3-0.1,0.7-0.1,1v2.6c0,0.3,0,0.7,0.1,1c0.2,0.7,0.6,1.4,1.1,1.9
	c0.6,0.5,1.3,0.7,2,0.7C122.9,26.5,124.3,24.7,124.3,21.5L124.3,21.5z M80.4,19.9v10.5h-4.7l-0.3-1.8h-0.1c-1.2,1.4-2.9,2.2-5,2.2
	c-3.6,0-5.7-2.6-5.7-5.4c0-4.6,4.6-5.9,10.3-5.9v-1.1c0-0.9-0.5-2.3-3.2-2.3c-1.4,0-2.8,0.3-4.1,0.9l-1.7-3.1
	c1.2-0.7,3.6-1.6,6.8-1.6C78.6,12.3,80.5,15.8,80.4,19.9L80.4,19.9z M75.1,22.7c-3,0-5.4,0.2-5.5,2.4c0,1.4,1.3,1.8,2.5,1.8
	c0.6,0,1.2-0.2,1.7-0.6c0.5-0.4,0.9-0.9,1.1-1.5c0.1-0.3,0.1-0.6,0.1-0.9V22.7z"/>
</svg>
