<?xml version="1.0" encoding="utf-8"?>
<!-- Generator: Adobe Illustrator 28.0.0, SVG Export Plug-In . SVG Version: 6.00 Build 0)  -->
<svg version="1.1" id="Layer_1" xmlns="http://www.w3.org/2000/svg" xmlns:xlink="http://www.w3.org/1999/xlink" x="0px" y="0px"
	 viewBox="0 0 1575 238" style="enable-background:new 0 0 1575 238;" xml:space="preserve">
<style type="text/css">
	.st0{fill-rule:evenodd;clip-rule:evenodd;fill:#231F20;}
</style>
<path class="st0" d="M1476.6,99.2c37.4,3.9,57.1,5.9,80,24.3c23.6,20.6,27.3,66.2-8.6,89.7c-32.5,20.9-73.2,23.5-110.8,24.4
	c-55.1,0-134.1-10.7-134-80.2h50.7c1.6,16.3,11.2,26.1,27.9,30.9c19.8,5.5,38.9,6.2,57.6,6.4c42.8,0,84.5-7.1,81.9-31.3
	c-2.5-22-31.7-24.2-45.5-25.3h-0.1c-0.4,0-0.8,0-1.2-0.1c-8.9-0.7-50.2-3.2-50.2-3.2c-25.9-1.9-44.7-4.7-56.3-6.8
	c-25-4.7-37.2-14.3-45.3-21.3c-20.6-19.4-23.8-62.8,9.1-84.5C1361.2,3,1398.3,1,1432.2,0.1c51.3,0.7,131.2,10,135.8,74.6h-51.2
	c-4.6-32.8-77-33.8-114.1-30.1c0,0-44.6,1.8-44.6,23.9c0,0-3.2,20.1,41,24.2c4.9,0.4,69.5,5.8,74,6.2L1476.6,99.2z M332.1,3.5h239.4
	v43.6H379v49.8h171.6v43.6H379v50.1h192.5v43.6H332.1L332.1,3.5z M950.5,3.5v230.7h-46.9V3.5H950.5z M861.2,168.9
	c0,38.9-22.6,65.4-91.8,65.4v-0.1h-150V3.5h135.9v0.2c40.1,0.2,91.5,9.1,91.5,62.7c0,23.6-10.5,39.5-23,47.8
	C836.3,117.9,861.2,135.6,861.2,168.9L861.2,168.9z M666.3,97.8h103.8c12.7-0.1,31.6-4.2,31.6-23.7c0-19.4-16.5-27-38.1-27h-97.3
	V97.8z M812.7,165c0-22-23.1-26.2-43.3-26.2v-0.1H666.3v51.8h103.8C791.7,190.5,812.7,187,812.7,165z M1052.5,115.2
	c0,14.2,1.1,41.6,5.5,64.4c0,0,26.8,9.8,76.2,9.8c49.1,0,76.1-9.7,76.4-9.8c4.3-22.8,5.5-50.2,5.5-64.4V3.5h49.6v117.4
	c0,32.6-26.1,49.7-55.1,58.7c-1.3,6.7-2.8,13-4.7,18.4c-8.4,23.9-30.4,39.1-71.6,39.1s-63.4-15.2-71.7-39.1
	c-1.9-5.4-3.4-11.7-4.7-18.4c-28.9-9-55-26.1-55-58.6V3.5h49.6L1052.5,115.2z M279.8,143.8c0,53.5-46.6,56.3-46.6,56.3V3.5h46.6
	V143.8z M46.8,37.5C46.8,18.2,62,0.2,84.2,0.2s37.9,12.3,47.5,34.2l58.6,135.4c14.9,34.3,42.9,30.4,42.9,30.4
	c0,19.3-15.2,37.3-37.4,37.3s-37.9-12.3-47.5-34.2L89.6,67.9C74.8,33.6,46.8,37.5,46.8,37.5l0,196.6H0.2V93.9
	C0.2,40.4,46.7,37.5,46.8,37.5z"/>
</svg>
