<?xml version="1.0" encoding="utf-8"?>
<!-- Generator: Adobe Illustrator 28.0.0, SVG Export Plug-In . SVG Version: 6.00 Build 0)  -->
<svg version="1.1" id="Layer_1" xmlns="http://www.w3.org/2000/svg" xmlns:xlink="http://www.w3.org/1999/xlink" x="0px" y="0px"
	 viewBox="0 0 1947 370" style="enable-background:new 0 0 1947 370;" xml:space="preserve">
<style type="text/css">
	.st0{fill-rule:evenodd;clip-rule:evenodd;}
</style>
<path id="Layer" class="st0" d="M1257.2,69.7v242.6h-68.5V69.7H1257.2z M773,69.3c59.6,0,120.7,12.9,120.7,108.7v134h-67V201.3
	c0-33.9-4.3-52.6-15.2-64.1c-8.4-9-20.8-13.4-38.5-13.4l-53.9-0.2v188.5h-69.1V69.3H773z M1395.2,69.7c54.7,0,91.3,6.6,116.4,40.5
	c14.2,18.9,22.2,49.3,22.2,83.5c0,37.2-9.5,71.3-24.3,86.7c-20.8,22-40.1,31.9-99.3,31.9h-111V69.7H1395.2z M1367,260.3h29.4
	c42.8,0,70.3-19.3,70.3-69.1c0-49.7-27.5-68.9-70.3-68.9H1367V260.3z M1160,69.7L1081,312.3h-98.7L904.2,69.7h74l54.7,192.2
	l57.1-192.2H1160z M1565.8,69.7h68.5v242.6h-68.5V69.7z M1849.3,69.7l96.4,242.1h-73.4l-14.4-42.8h-113.1l-15.2,43h-67.4l95.6-242.4
	H1849.3z M1759.5,227.4h84.3l-41.5-113.5L1759.5,227.4z"/>
<path id="Layer_00000167387836045231788130000005884448410213141672_" class="st0" d="M558.6-0.2v369.4H208.7v-43.4
	c7.4,0.8,14.8,1.2,22.6,1.2c81,0,223.9-41.3,285.2-92.7c-9.1-9-52.8-29.8-63.5-38.4c-64.6,55.5-131.2,102.6-223.3,102.6
	c-7,0-14.2-0.6-21.2-1.4v-30.8c8.4,1.4,16.9,2.3,25.5,2.3c98.9,0,193.9-115.5,193.9-115.5S345,44.6,218.1,49l-9.9,0.6V-0.2H558.6z
	 M218.1,76.3c91.3-2.9,151.1,78.5,151.1,78.5s-64.6,89.6-133.8,89.6c-9.2,0-18.3-1.4-26.9-4.3V139c35.6,4.3,42.8,19.9,64,55.5
	l47.5-39.9c0,0-34.8-45.4-93.1-45.4c-6.2-0.2-12.3,0.2-18.5,0.8V76.7c-100.8,7.9-151.1,82.2-151.1,82.2S95.6,283.1,208.3,297v28.8
	C54.7,311.4,0,153.2,0,153.2S96.6,58.6,208.5,49.6v27.1C211.7,76.5,214.9,76.3,218.1,76.3z M208.3,266.4
	C123.2,251.2,99.5,162.6,99.5,162.6s40.9-45.2,108.8-52.6v28.8h-0.2c-35.6-4.3-63.5,29-63.5,29s15.8,56.1,63.7,72.4V266.4z"/>
</svg>
