<?xml version="1.0" encoding="utf-8"?>
<!-- Generator: Adobe Illustrator 28.0.0, SVG Export Plug-In . SVG Version: 6.00 Build 0)  -->
<svg version="1.1" id="Layer_1" xmlns="http://www.w3.org/2000/svg" xmlns:xlink="http://www.w3.org/1999/xlink" x="0px" y="0px"
	 viewBox="0 0 1557 429" style="enable-background:new 0 0 1557 429;" xml:space="preserve">
<style type="text/css">
	.st0{fill-rule:evenodd;clip-rule:evenodd;}
</style>
<path id="Layer" class="st0" d="M597.3,88c62.4,0,107.4,48.8,107.4,118.8c0,69.9-45,118.7-107.4,118.7
	C535,325.5,490,276.7,490,206.8C490,136.8,535,88,597.3,88z M597.3,124.3c-38.9,0-66.2,32.4-66.2,82.5c0,50,27.3,82.5,66.2,82.5
	s66.2-32.5,66.2-82.5C663.5,156.7,636.2,124.3,597.3,124.3L597.3,124.3z M772,304.3v75.5h-38.6V153.5H772v18
	c10.6-12.6,26.6-21.2,48.5-21.2c47.2,0,74.2,39.8,74.2,87.6s-27,87.6-74.2,87.6C798.6,325.5,782.6,316.9,772,304.3z M771,243
	c0,31.2,18,48.8,41.8,48.8c27.9,0,43-21.8,43-53.9s-15.1-53.9-43-53.9c-23.8,0-41.8,17.3-41.8,49.1V243z M917.1,237.8
	c0-49.4,31.5-87.6,80.4-87.6c48.8,0,74.9,36.9,74.9,83.2v12.8H954.1c2.9,28.9,20.2,46.5,45,46.5c19,0,34.1-9.6,39.2-26.9l33.1,12.5
	c-11.9,29.5-38.6,47.2-72.3,47.2C950.9,325.5,917.1,289.8,917.1,237.8L917.1,237.8z M956,217.3h77.5c-0.3-18.6-11.9-34.7-36.3-34.7
	C977.2,182.6,961.8,194.5,956,217.3z M1101.3,153.4h38.6v18c9.6-11.2,24.7-21.2,46.6-21.2c35.3,0,56.5,24.4,56.5,60.7v111h-38.5
	v-99.8c0-20.8-8.4-35.9-29.6-35.9c-17.4,0-35,12.8-35,36.9v98.8h-38.6V153.4z M1402.6,91.5L1490,322h-41.5l-19.9-52.7H1329
	l-19.6,52.7h-40.9L1356,91.5L1402.6,91.5z M1342.5,233.4h72.6l-36.6-96.3L1342.5,233.4z M1515,92.2h41.2v230.4H1515V92.2z"/>
<path id="Layer_00000154410138120869885630000006235492784085648532_" class="st0" d="M395.8,176.1c31.4,34.8,36.8,85.9,13.3,126.5
	c-15.2,26.7-41.3,45.5-71.4,51.7c-14.4,44.6-56.1,74.8-103,74.7c-30.8,0.2-60.1-12.9-80.5-35.9c-45.9,9.9-92.9-11-116.3-51.7
	C22.3,314.9,19,283,28.7,253.8c-31.4-34.7-36.8-85.9-13.3-126.4c15.3-26.7,41.3-45.6,71.4-51.7c14.4-44.6,56.1-74.8,103-74.7
	c30.8-0.2,60.1,12.9,80.5,35.9c45.9-9.9,92.9,11,116.3,51.7C402.1,115.1,405.5,147,395.8,176.1L395.8,176.1z M314.9,320.7v-99.5
	c0-0.4-0.3-0.8-0.7-0.9l-36-20.8v120.1c0,5-2.7,9.7-7.1,12.1L185.8,381c-0.7,0.4-1.9,1-2.5,1.4c14.4,12,32.6,18.6,51.4,18.5
	C279,400.9,314.9,365,314.9,320.7L314.9,320.7z M62.2,327.3c22.2,38.4,71.3,51.5,109.7,29.4l86.2-49.7c0.4-0.3,0.6-0.7,0.5-1.1
	v-41.6l-104.1,60c-4.4,2.6-9.7,2.6-14,0l-85.4-49.2c-0.8-0.4-1.9-1.1-2.5-1.5C49.4,292.1,52.8,311.1,62.2,327.3L62.2,327.3z
	 M39.7,141.3c-22.1,38.4-8.9,87.4,29.4,109.6l86.2,49.7c0.4,0.2,0.9,0.2,1.3-0.1l36-20.8l-104.1-60c-4.4-2.5-7.1-7.2-7-12.2v-98.4
	c0-0.9,0-2.2,0-3C63.9,112.6,49.1,125,39.7,141.3L39.7,141.3z M336,210.2c4.3,2.5,7,7.1,7,12.1v101.4c17.6-6.5,32.4-18.9,41.7-35.2
	c22.2-38.3,9.1-87.4-29.3-109.6l-86.3-49.7c-0.4-0.2-0.9-0.1-1.2,0.1l-36.1,20.8L336,210.2z M371.9,156.2c-0.1,0-0.1,0-0.1,0
	c0,0,0,0,0,0H371.9z M371.9,156.2c3.2-18.4-0.2-37.4-9.6-53.6C340.2,64.2,291.1,51,252.7,73.2l-86.3,49.7c-0.3,0.2-0.5,0.6-0.5,1.1
	v41.6l104.2-60.1c4.3-2.5,9.7-2.5,14,0l85.3,49.2C370.2,155.1,371.3,155.8,371.9,156.2L371.9,156.2z M146.3,230.3l0.1-120.1
	c-0.1-5,2.6-9.6,7-12.1l85.3-49.2c0.7-0.5,1.9-1.1,2.5-1.4c-14.4-12-32.6-18.6-51.3-18.6c-44.4,0-80.3,35.9-80.4,80.2v99.5
	c0.1,0.4,0.3,0.8,0.7,1L146.3,230.3L146.3,230.3z M165.9,241.7l46.4,26.7l46.4-26.7v-53.5l-46.4-26.8l-46.4,26.8V241.7z"/>
</svg>
