<?xml version="1.0" encoding="utf-8"?>
<!-- Generator: Adobe Illustrator 28.0.0, SVG Export Plug-In . SVG Version: 6.00 Build 0)  -->
<svg version="1.1" id="Layer_1" xmlns="http://www.w3.org/2000/svg" xmlns:xlink="http://www.w3.org/1999/xlink" x="0px" y="0px"
	 viewBox="0 0 1531.6 199" style="enable-background:new 0 0 1531.6 199;" xml:space="preserve">
<style type="text/css">
	.st0{fill-rule:evenodd;clip-rule:evenodd;}
</style>
<path id="Layer" class="st0" d="M662.6,129.5h101l-53.3-86.2L612.2,199h-44.6L686.9,12.1c2.6-3.7,6.1-6.8,10.1-8.9
	c4-2.1,8.5-3.2,13-3.3c4.5,0,9,1,13.1,3.1s7.5,5.1,10.2,8.8L852.9,199h-44.6l-21-34.8H685.1l-22.3-34.7 M1126.1,164.4h176.5
	l-22.5,34.8h-172.3c-1.3,0-2.6-0.1-3.8-0.4c-1.2-0.2-2.5-0.6-3.7-1.1c-1.2-0.5-2.3-1.1-3.4-1.8c-1.1-0.7-2-1.6-2.9-2.5
	c-0.9-0.9-1.7-1.8-2.4-2.8c-0.7-1-1.3-2.1-1.8-3.2c-0.5-1.1-0.8-2.3-1.1-3.5c-0.2-1.2-0.4-2.4-0.4-3.7V1.9h37.9v162.3L1126.1,164.4z
	 M482.5,135.2l76,63.8h-54.9l-113.1-98.4h106.8c8.4,0,16.6-3.4,22.5-9.3c6-6,9.3-14.1,9.3-22.6c0-8.5-3.3-16.6-9.3-22.6
	c-6-6-14.1-9.3-22.5-9.3H371.6V199h-37.9V1.9l165.7,0.3c17.6,0,34.4,7,46.9,19.4s19.4,29.3,19.4,46.9c0,17.6-7,34.5-19.4,46.9
	s-29.3,19.4-46.9,19.8H482.5z M101,199c-26.6,0.7-52.3-9.4-71.3-27.9c-19-18.6-29.8-44-29.8-70.6c0-26.6,10.7-52,29.8-70.6
	C48.8,11.3,74.5,1.2,101,1.9h114.5c25.7,0.7,50.1,11.3,68,29.8c17.9,18.4,28,43.1,28,68.8s-10,50.4-28,68.8
	c-17.9,18.4-42.3,29.1-68,29.8H101z M212.9,164.3c17.3,0.6,34-5.9,46.4-17.9c12.4-12,19.4-28.6,19.4-45.8s-7-33.8-19.4-45.8
	c-12.4-12-29.1-18.5-46.4-17.9H103.6C87,37.3,71.3,44.2,59.8,56.1c-11.5,11.9-18,27.8-18,44.4s6.4,32.5,18,44.4
	c11.5,11.9,27.2,18.9,43.8,19.4H212.9z M932,199c-26.6,0.7-52.3-9.4-71.3-27.9c-19-18.6-29.8-44-29.8-70.6c0-26.6,10.7-52,29.8-70.6
	c19-18.5,44.7-28.6,71.3-27.9h136l-22.4,34.8h-111c-17.3-0.6-34,5.9-46.4,17.9c-12.4,12-19.4,28.6-19.4,45.8s7,33.8,19.4,45.8
	c12.4,12,29.1,18.5,46.4,17.9h136.4l-22.1,34.7H932z M1395,164.2h136.5l-22.2,34.7h-116.8c-25.7-0.7-50.1-11.3-68-29.7
	c-17.9-18.4-28-43.1-28-68.8s10-50.4,28-68.8c17.9-18.4,42.3-29.1,68-29.7h135.9l-22.2,34.8H1395c-6.9,0-13.8,1.1-20.3,3.3
	c-6.5,2.2-12.7,5.4-18.2,9.6c-5.5,4.2-10.3,9.2-14.2,14.9c-3.9,5.7-6.8,12-8.7,18.7h184.1l-22.3,34.8h-161.8
	c1.9,6.6,4.8,12.9,8.7,18.6c3.9,5.7,8.7,10.7,14.2,14.9c5.5,4.2,11.6,7.4,18.2,9.6C1381.3,163.2,1388.1,164.3,1395,164.2L1395,164.2
	z"/>
</svg>
