<?xml version="1.0" encoding="utf-8"?>
<!-- Generator: Adobe Illustrator 28.0.0, SVG Export Plug-In . SVG Version: 6.00 Build 0)  -->
<svg version="1.1" id="Layer_1" xmlns="http://www.w3.org/2000/svg" xmlns:xlink="http://www.w3.org/1999/xlink" x="0px" y="0px"
	 viewBox="0 0 78 31" style="enable-background:new 0 0 78 31;" xml:space="preserve">
<style type="text/css">
	.st0{clip-path:url(#SVGID_00000066476536873470400290000001208505037090026894_);}
</style>
<g>
	<defs>
		<rect id="SVGID_1_" y="0" width="78" height="31"/>
	</defs>
	<clipPath id="SVGID_00000140703537197148618420000014942211500290497203_">
		<use xlink:href="#SVGID_1_"  style="overflow:visible;"/>
	</clipPath>
	<g style="clip-path:url(#SVGID_00000140703537197148618420000014942211500290497203_);">
		<path d="M8.5,22l-4.4,3.9C7,29,11.2,31,15.8,31c0.8,0,1.6-0.1,2.4-0.2v-5.9c-0.8,0.2-1.6,0.3-2.4,0.3C12.9,25.2,10.3,24,8.5,22
			L8.5,22z"/>
		<path d="M31.7,15.5c0-4-1.5-7.6-4.1-10.4L23.2,9c1.6,1.7,2.5,4,2.5,6.5c0,2.1-0.7,4.1-1.9,5.7l-3.1-3.4h-8l11.8,12.8h8l-4.6-5
			C30.3,22.9,31.7,19.4,31.7,15.5z"/>
		<path d="M32.1,5.8h8.1v24.8h5.9V9.7l-3.6-3.9h11.7V0.4H32.1V5.8z"/>
		<path d="M62.5,8.7c0-1.8,1.9-2.9,4.5-2.9c2.6,0,4.2,0.9,5.8,2.6l4.5-3.9C75.9,2.7,72.6,0,67.4,0c-5.2,0-10.8,3.3-10.8,8.8
			c0,10.1,15.5,8.1,15.5,13c0,2.2-2.3,3.3-4.9,3.3c-3.2,0-5.5-1.6-7.1-3.3l-4.5,3.9C57.2,28,60.7,31,66.7,31S78,27.7,78,21.8
			C78,11.5,62.5,13.6,62.5,8.7L62.5,8.7z"/>
		<path d="M14.9,5.9l-0.6-5.8c-0.4,0-0.9,0.1-1.3,0.2L14.1,6C14.3,5.9,14.6,5.9,14.9,5.9z"/>
		<path d="M11.7,6.7L9.2,1.5C8.8,1.6,8.4,1.9,8,2.1l3,5C11.2,7,11.4,6.8,11.7,6.7z"/>
		<path d="M13.2,6.2l-1.6-5.6c-0.4,0.1-0.9,0.2-1.3,0.4l2,5.5C12.7,6.3,13,6.2,13.2,6.2L13.2,6.2z"/>
		<path d="M15.8,5.8c0.2,0,0.5,0,0.7,0L17,0.1c-0.4,0-0.8,0-1.2,0c-0.1,0-0.1,0-0.2,0l0.1,5.8C15.8,5.8,15.8,5.8,15.8,5.8L15.8,5.8z
			"/>
		<path d="M22.6,8.4l4.1-4.2c-0.3-0.3-0.7-0.6-1-0.9L22,7.9C22.2,8.1,22.4,8.3,22.6,8.4z"/>
		<path d="M21.3,7.4l3.3-4.8c-0.4-0.2-0.8-0.5-1.2-0.7L20.6,7C20.8,7.1,21.1,7.3,21.3,7.4L21.3,7.4z"/>
		<path d="M19.8,6.6l2.4-5.3C21.8,1.1,21.4,1,21,0.8L19,6.3C19.3,6.4,19.6,6.5,19.8,6.6z"/>
		<path d="M10.2,7.5L6.8,2.8C6.5,3,6.1,3.3,5.8,3.6L9.5,8C9.8,7.9,10,7.7,10.2,7.5L10.2,7.5z"/>
		<path d="M19.7,0.5c-0.4-0.1-0.9-0.2-1.3-0.3L17.4,6C17.7,6,18,6,18.2,6.1L19.7,0.5z"/>
		<path d="M6.2,17.6l-5.8,1.3c0.1,0.4,0.2,0.9,0.4,1.3l5.7-1.8C6.3,18.2,6.2,17.9,6.2,17.6L6.2,17.6z"/>
		<path d="M6.7,19.2l-5.5,2.2c0.2,0.4,0.4,0.8,0.6,1.2L7,20C6.9,19.7,6.8,19.5,6.7,19.2z"/>
		<path d="M6,16L0,16.3c0,0.4,0.1,0.9,0.1,1.3L6,16.8C6,16.6,6,16.3,6,16z"/>
		<path d="M8.9,8.6L4.8,4.4c-0.3,0.3-0.6,0.6-0.9,1l4.5,3.8C8.5,9,8.7,8.8,8.9,8.6L8.9,8.6z"/>
		<path d="M7.5,20.7l-5,3.1c0.2,0.4,0.5,0.7,0.8,1.1l4.7-3.5C7.8,21.1,7.6,20.9,7.5,20.7z"/>
		<path d="M7.8,9.8L3,6.4C2.7,6.8,2.5,7.1,2.3,7.5l5.1,3C7.5,10.3,7.7,10,7.8,9.8L7.8,9.8z"/>
		<path d="M6,14.4l-5.9-0.7C0,14.1,0,14.6,0,15l5.9,0.2C6,14.9,6,14.6,6,14.4z"/>
		<path d="M7,11.2L1.6,8.7C1.4,9.1,1.2,9.5,1.1,9.9L6.6,12C6.7,11.7,6.8,11.5,7,11.2L7,11.2z"/>
		<path d="M6.3,12.8l-5.7-1.6c-0.1,0.4-0.2,0.8-0.3,1.3l5.8,1.2C6.2,13.3,6.3,13,6.3,12.8L6.3,12.8z"/>
	</g>
</g>
</svg>
