<?xml version="1.0" encoding="utf-8"?>
<!-- Generator: Adobe Illustrator 28.0.0, SVG Export Plug-In . SVG Version: 6.00 Build 0)  -->
<svg version="1.1" id="Layer_1" xmlns="http://www.w3.org/2000/svg" xmlns:xlink="http://www.w3.org/1999/xlink" x="0px" y="0px"
	 viewBox="0 0 1428.7 151.2" style="enable-background:new 0 0 1428.7 151.2;" xml:space="preserve">
<style type="text/css">
	.st0{fill-rule:evenodd;clip-rule:evenodd;}
</style>
<path class="st0" d="M626.1,112.9h-74.5l-15.3,39.3h-29.9l51-130.1c1.2-3,2.8-5.9,4.7-8.5c1.9-2.7,4.2-5.1,6.9-7.2
	c2.9-2.2,6.1-3.8,9.5-4.9c3.3-1.1,6.8-1.6,10.2-1.6c3.4,0,7,0.5,10.3,1.6c3.4,1.1,6.5,2.7,9.4,4.8c2.7,2,5,4.4,7.1,7.2
	c1.9,2.7,3.5,5.6,4.7,8.6L671,152.3h-29.7l-15.4-39.3L626.1,112.9z M363,102.3v49.9h-27.8V1.2h109.6c4.4,0,8.8,0.9,12.9,2.7
	c3.9,1.7,7.4,4.1,10.4,7.1c3,3,5.3,6.4,7,10.4c1.7,4.1,2.6,8.4,2.6,12.9v35.5c0,5.9-1.5,11.5-4.5,16.6c-2.9,4.8-6.9,8.8-11.7,11.7
	c-2,1.2-4.2,2.1-6.4,2.9l38.9,51.5h-34.7l-37.7-49.9H363V102.3z M363,28.9v45.8h81.9c1,0,1.8-0.2,2.7-0.6c0.9-0.4,1.4-1.1,1.9-1.9
	c0.4-0.8,0.6-1.5,0.6-2.5V34.2c0-1-0.2-1.8-0.6-2.6c-0.5-0.9-1.1-1.4-1.9-1.9c-0.9-0.5-1.7-0.6-2.7-0.6H363V28.9z M1326,60.9h95.9
	v27.8H1326v63.8h-27.5V33.8c0-5.8,1.5-11.4,4.4-16.4c2.8-4.8,6.8-8.7,11.6-11.6c5-3,10.5-4.5,16.3-4.5h97.9v27.5h-97.9
	c-0.9,0-1.5,0.2-2.2,0.6c-0.8,0.4-1.4,1.1-1.8,1.9c-0.4,0.8-0.7,1.5-0.7,2.4V61V60.9z M1273.2,152.3h-93.9c-5.1,0-10.1-1.3-14.6-4
	c-4.2-2.5-7.6-5.9-10.2-10.1c-2.7-4.4-4.1-9.3-4.1-14.5V1.3h27.8v122.8c0.8,1.1-0.5-0.2,1,0.5h93.9v27.8L1273.2,152.3z M965.3,1.2
	h27.5v106.7c0,2.2,0.4,4.3,1.3,6.3c0.8,2,2,3.8,3.6,5.2s3.3,2.8,5.4,3.6c2,0.9,4.2,1.3,6.4,1.3h66c2.2,0,4.4-0.4,6.4-1.3
	c2-0.9,3.8-2,5.3-3.6c1.5-1.5,2.8-3.3,3.7-5.4c0.8-2,1.3-4.2,1.3-6.3V1.1h27.5v106.7c0,6-1.2,11.8-3.4,17.2c-2.2,5.3-5.5,10-9.5,14
	c-4.1,4.1-8.8,7.2-14,9.4c-5.5,2.4-11.4,3.5-17.2,3.5h-66c-6,0-11.8-1.2-17.2-3.5c-5.2-2.2-10-5.5-14-9.4c-4.1-4.1-7.2-8.8-9.4-14
	c-2.4-5.5-3.5-11.4-3.5-17.2V1.1V1.2z M798.8,40.6l-34,88.1v0.5v0.3l-1.2,2.3c-1.4,2.9-3.1,5.7-5,8.1c-1.9,2.5-4,4.7-6.4,6.6
	c-2.8,2.1-5.9,3.6-9.2,4.7c-3.3,1.1-6.8,1.5-10.2,1.5s-7.1-0.5-10.4-1.6c-3.4-1.1-6.5-2.8-9.3-5c-2.7-2-5-4.3-7-7
	c-1.9-2.7-3.4-5.7-4.6-8.7L650.8,1.1h29.7l46.7,119.5c0.5,1.4,1.3,2.7,2.5,3.5c1,0.8,2,1,3.2,1c0.8,0,1.7,0,2.5-0.6
	c1.4-1.1,2.5-2.4,3.1-4.1l40.4-104.8c1.6-4.2,4.1-7.8,7.6-10.5c3.6-2.8,7.9-4.2,12.4-4.2s8.8,1.4,12.4,4.2c3.5,2.7,6,6.3,7.6,10.5
	l40.4,104.8c0.6,1.7,1.7,3,3.1,4.1c0.8,0.5,1.6,0.6,2.5,0.6c1.2,0,2.2-0.2,3.2-1c1.2-0.9,1.9-2.2,2.5-3.5L917.3,1.1h29.9
	l-50.9,129.4c-1.2,3.1-2.7,6-4.6,8.7c-1.9,2.7-4.4,5-7,7c-2.9,2.1-6,3.9-9.3,5c-3.3,1.1-6.9,1.6-10.4,1.6c-3.5,0-7-0.4-10.2-1.5
	c-3.3-1.1-6.4-2.6-9.2-4.7c-2.5-1.9-4.5-4.2-6.4-6.6c-1.9-2.6-3.6-5.4-5-8.1l-1.2-2.3v-0.9l-34-88.1H798.8z M195.6,62.9h104.8v27.8
	H195.6v29.1c0,0.9,0.2,1.6,0.6,2.4c0.4,0.8,1,1.3,1.8,1.8c0.8,0.4,1.5,0.6,2.4,0.6h106.7v27.8H200.5c-5.8,0-11.4-1.5-16.3-4.5
	c-4.8-2.9-8.7-6.8-11.6-11.6c-3-5-4.4-10.6-4.4-16.4V33.8c0-5.8,1.5-11.4,4.4-16.4c2.8-4.8,6.8-8.7,11.6-11.6c5-3,10.5-4.5,16.3-4.5
	h106.7v27.5H200.5c-0.9,0-1.5,0.2-2.3,0.6c-0.8,0.4-1.4,1.1-1.8,1.9c-0.4,0.8-0.6,1.5-0.6,2.4v29.4L195.6,62.9z M58.4,28.8H0V1.1
	h144.6v27.8H86v123.3H58.3V28.8H58.4z M562.6,85.2h52.8l-20.8-53c-0.5-1.4-1.4-2.8-2.6-3.8c-1-0.8-1.8-1-3-1s-2,0.3-2.9,1
	c-1.3,1-2.1,2.2-2.7,3.8l-20.7,53H562.6z"/>
</svg>
